# Blender 5.1.2
# www.blender.org
mtllib Slash_mesh.mtl
o Plane.001
v -5.000000 0.000000 0.302501
v 5.000000 0.000000 0.302502
v -5.000000 0.000000 -2.564285
v 5.000000 0.000000 -2.564285
v -4.333333 0.000000 -0.052951
v -3.666667 0.000000 -0.329423
v -3.000000 0.000000 -0.552749
v -2.333333 0.000000 -0.747398
v -1.666667 0.000000 -0.897826
v -1.000000 0.000000 -0.983944
v -0.333333 0.000000 -1.033213
v 0.333333 0.000000 -1.033213
v 1.000000 0.000000 -0.983944
v 1.666667 0.000000 -0.897826
v 2.333333 0.000000 -0.747398
v 3.000000 0.000000 -0.552749
v 3.666667 0.000000 -0.329423
v 4.333333 0.000000 -0.052950
v 4.333333 0.000000 -2.848877
v 3.666667 0.000000 -3.127844
v 3.000000 0.000000 -3.368087
v 2.333333 0.000000 -3.576346
v 1.666667 0.000000 -3.743675
v 1.000000 0.000000 -3.850731
v 0.333333 0.000000 -3.900000
v -0.333333 0.000000 -3.900000
v -1.000000 0.000000 -3.850731
v -1.666667 0.000000 -3.743676
v -2.333333 0.000000 -3.576346
v -3.000000 0.000000 -3.368087
v -3.666667 0.000000 -3.127844
v -4.333333 0.000000 -2.848877
vn -0.0000 1.0000 -0.0000
vt 0.933333 0.000000
vt 1.000000 0.000000
vt 1.000000 1.000000
vt 0.933333 1.000000
vt 0.000000 0.000000
vt 0.066667 0.000000
vt 0.066667 1.000000
vt 0.000000 1.000000
vt 0.133333 0.000000
vt 0.133333 1.000000
vt 0.200000 0.000000
vt 0.200000 1.000000
vt 0.266667 0.000000
vt 0.266667 1.000000
vt 0.333333 0.000000
vt 0.333333 1.000000
vt 0.400000 0.000000
vt 0.400000 1.000000
vt 0.466667 0.000000
vt 0.466667 1.000000
vt 0.533333 0.000000
vt 0.533333 1.000000
vt 0.600000 0.000000
vt 0.600000 1.000000
vt 0.666667 0.000000
vt 0.666667 1.000000
vt 0.733333 0.000000
vt 0.733333 1.000000
vt 0.800000 0.000000
vt 0.800000 1.000000
vt 0.866667 0.000000
vt 0.866667 1.000000
s 0
usemtl Material.004
f 18/1/1 2/2/1 4/3/1 19/4/1
f 1/5/1 5/6/1 32/7/1 3/8/1
f 5/6/1 6/9/1 31/10/1 32/7/1
f 6/9/1 7/11/1 30/12/1 31/10/1
f 7/11/1 8/13/1 29/14/1 30/12/1
f 8/13/1 9/15/1 28/16/1 29/14/1
f 9/15/1 10/17/1 27/18/1 28/16/1
f 10/17/1 11/19/1 26/20/1 27/18/1
f 11/19/1 12/21/1 25/22/1 26/20/1
f 12/21/1 13/23/1 24/24/1 25/22/1
f 13/23/1 14/25/1 23/26/1 24/24/1
f 14/25/1 15/27/1 22/28/1 23/26/1
f 15/27/1 16/29/1 21/30/1 22/28/1
f 16/29/1 17/31/1 20/32/1 21/30/1
f 17/31/1 18/1/1 19/4/1 20/32/1
