# Blender 4.5.3 LTS
# www.blender.org
mtllib slash.mtl
o Cylinder
v 0.000000 -0.213765 -1.000000
v 0.000000 0.213765 -1.000000
v 0.195090 -0.213765 -0.980785
v 0.195090 0.213765 -0.980785
v 0.382683 -0.213765 -0.923880
v 0.382683 0.213765 -0.923880
v 0.555570 -0.213765 -0.831470
v 0.555570 0.213765 -0.831470
v 0.707107 -0.213765 -0.707107
v 0.707107 0.213765 -0.707107
v 0.831470 -0.213765 -0.555570
v 0.831470 0.213765 -0.555570
v 0.923880 -0.213765 -0.382683
v 0.923880 0.213765 -0.382683
v 0.980785 -0.213765 -0.195090
v 0.980785 0.213765 -0.195090
v 1.000000 -0.213765 0.000000
v 1.000000 0.213765 0.000000
v 0.980785 -0.213765 0.195090
v 0.980785 0.213765 0.195090
v -0.980785 -0.213765 0.195090
v -0.980785 0.213765 0.195090
v -1.000000 -0.213765 0.000000
v -1.000000 0.213765 0.000000
v -0.980785 -0.213765 -0.195090
v -0.980785 0.213765 -0.195090
v -0.923880 -0.213765 -0.382683
v -0.923880 0.213765 -0.382683
v -0.831470 -0.213765 -0.555570
v -0.831470 0.213765 -0.555570
v -0.707107 -0.213765 -0.707107
v -0.707107 0.213765 -0.707107
v -0.555570 -0.213765 -0.831470
v -0.555570 0.213765 -0.831470
v -0.382683 -0.213765 -0.923880
v -0.382683 0.213765 -0.923880
v -0.195090 -0.213765 -0.980785
v -0.195090 0.213765 -0.980785
v -0.000000 0.000000 -1.977693
v 0.385829 0.000000 -1.939692
v 0.756830 0.000000 -1.827150
v 1.098747 0.000000 -1.644391
v 1.398440 0.000000 -1.398440
v 1.644391 0.000000 -1.098747
v 1.827150 0.000000 -0.756830
v 1.939692 0.000000 -0.385829
v 1.977693 0.000000 0.000000
v 1.939692 0.000000 0.385829
v -1.939692 0.000000 0.385829
v -1.977693 0.000000 0.000000
v -1.939692 0.000000 -0.385829
v -1.827150 0.000000 -0.756830
v -1.644391 0.000000 -1.098747
v -1.398440 0.000000 -1.398440
v -1.098747 0.000000 -1.644391
v -0.756830 0.000000 -1.827150
v -0.385829 0.000000 -1.939692
vn -0.0000 -0.9769 -0.2136
vn -0.0000 0.9769 -0.2136
vn 0.0417 -0.9769 -0.2095
vn 0.0417 0.9769 -0.2095
vn 0.0817 -0.9769 -0.1973
vn 0.0817 0.9769 -0.1973
vn 0.1187 -0.9769 -0.1776
vn 0.1187 0.9769 -0.1776
vn 0.1510 -0.9769 -0.1510
vn 0.1510 0.9769 -0.1510
vn 0.1776 -0.9769 -0.1187
vn 0.1776 0.9769 -0.1187
vn 0.1973 -0.9769 -0.0817
vn 0.1973 0.9769 -0.0817
vn 0.2095 -0.9769 -0.0417
vn 0.2095 0.9769 -0.0417
vn 0.2136 -0.9769 -0.0000
vn 0.2136 0.9769 -0.0000
vn 0.2135 -0.9767 0.0210
vn 0.2135 0.9767 0.0210
vn -0.2135 -0.9767 0.0210
vn -0.2135 0.9767 0.0210
vn -0.2136 -0.9769 -0.0000
vn -0.2136 0.9769 -0.0000
vn -0.2095 -0.9769 -0.0417
vn -0.2095 0.9769 -0.0417
vn -0.1973 -0.9769 -0.0817
vn -0.1973 0.9769 -0.0817
vn -0.1776 -0.9769 -0.1187
vn -0.1776 0.9769 -0.1187
vn -0.1510 -0.9769 -0.1510
vn -0.1510 0.9769 -0.1510
vn -0.1187 -0.9769 -0.1776
vn -0.1187 0.9769 -0.1776
vn -0.0817 -0.9769 -0.1973
vn -0.0817 0.9769 -0.1973
vn -0.0417 -0.9769 -0.2095
vn -0.0417 0.9769 -0.2095
vn -0.0000 -0.0000 -1.0000
vn 0.1951 -0.0000 -0.9808
vn 0.3827 -0.0000 -0.9239
vn 0.5556 -0.0000 -0.8315
vn 0.7071 -0.0000 -0.7071
vn 0.8315 -0.0000 -0.5556
vn 0.9239 -0.0000 -0.3827
vn 0.9808 -0.0000 -0.1951
vn 1.0000 -0.0000 -0.0000
vn 0.9952 -0.0000 0.0980
vn -0.9952 -0.0000 0.0980
vn -1.0000 -0.0000 -0.0000
vn -0.9808 -0.0000 -0.1951
vn -0.9239 -0.0000 -0.3827
vn -0.8315 -0.0000 -0.5556
vn -0.7071 -0.0000 -0.7071
vn -0.5556 -0.0000 -0.8315
vn -0.3827 -0.0000 -0.9239
vn -0.1951 -0.0000 -0.9808
vt 0.500000 1.000000
vt 0.500000 0.000000
vt 0.555555 0.000000
vt 0.555556 1.000000
vt 0.611111 0.000000
vt 0.611111 1.000000
vt 0.666667 0.000000
vt 0.666667 1.000000
vt 0.722222 0.000000
vt 0.722222 1.000000
vt 0.777778 0.000000
vt 0.777778 1.000000
vt 0.833333 0.000000
vt 0.833333 1.000000
vt 0.888889 0.000000
vt 0.888889 1.000000
vt 0.944444 0.000000
vt 0.944445 1.000000
vt 1.000000 0.000000
vt 1.000000 1.000000
vt 0.000000 1.000000
vt 0.000000 0.000000
vt 0.055555 0.000000
vt 0.055556 1.000000
vt 0.111111 0.000000
vt 0.111111 1.000000
vt 0.166667 0.000000
vt 0.166667 1.000000
vt 0.222222 0.000000
vt 0.222222 1.000000
vt 0.277778 0.000000
vt 0.277778 1.000000
vt 0.333333 0.000000
vt 0.333333 1.000000
vt 0.388889 0.000000
vt 0.388889 1.000000
vt 0.444444 0.000000
vt 0.444444 1.000000
s 1
f 39/1/39 2/2/2 4/3/4 40/4/40
f 40/4/40 4/3/4 6/5/6 41/6/41
f 41/6/41 6/5/6 8/7/8 42/8/42
f 42/8/42 8/7/8 10/9/10 43/10/43
f 43/10/43 10/9/10 12/11/12 44/12/44
f 44/12/44 12/11/12 14/13/14 45/14/45
f 45/14/45 14/13/14 16/15/16 46/16/46
f 46/16/46 16/15/16 18/17/18 47/18/47
f 47/18/47 18/17/18 20/19/20 48/20/48
f 49/21/49 22/22/22 24/23/24 50/24/50
f 50/24/50 24/23/24 26/25/26 51/26/51
f 51/26/51 26/25/26 28/27/28 52/28/52
f 52/28/52 28/27/28 30/29/30 53/30/53
f 53/30/53 30/29/30 32/31/32 54/32/54
f 54/32/54 32/31/32 34/33/34 55/34/55
f 55/34/55 34/33/34 36/35/36 56/36/56
f 56/36/56 36/35/36 38/37/38 57/38/57
f 57/38/57 38/37/38 2/2/2 39/1/39
f 37/38/37 57/37/57 39/2/39 1/1/1
f 35/36/35 56/35/56 57/37/57 37/38/37
f 33/34/33 55/33/55 56/35/56 35/36/35
f 31/32/31 54/31/54 55/33/55 33/34/33
f 29/30/29 53/29/53 54/31/54 31/32/31
f 27/28/27 52/27/52 53/29/53 29/30/29
f 25/26/25 51/25/51 52/27/52 27/28/27
f 23/24/23 50/23/50 51/25/51 25/26/25
f 21/21/21 49/22/49 50/23/50 23/24/23
f 17/18/17 47/17/47 48/19/48 19/20/19
f 15/16/15 46/15/46 47/17/47 17/18/17
f 13/14/13 45/13/45 46/15/46 15/16/15
f 11/12/11 44/11/44 45/13/45 13/14/13
f 9/10/9 43/9/43 44/11/44 11/12/11
f 7/8/7 42/7/42 43/9/43 9/10/9
f 5/6/5 41/5/41 42/7/42 7/8/7
f 3/4/3 40/3/40 41/5/41 5/6/5
f 1/1/1 39/2/39 40/3/40 3/4/3
