# Blender 4.5.3 LTS
# www.blender.org
mtllib Circle_Mesh.mtl
o Cylinder
v -0.000000 0.000000 -4.686024
v 0.000000 0.000000 -0.059356
v 0.914198 0.000000 -4.595983
v 0.011580 0.000000 -0.058216
v 1.793264 0.000000 -4.329321
v 0.022715 0.000000 -0.054838
v 2.603415 0.000000 -3.896286
v 0.032977 0.000000 -0.049353
v 3.313519 0.000000 -3.313519
v 0.041971 0.000000 -0.041971
v 3.896286 0.000000 -2.603415
v 0.049353 0.000000 -0.032977
v 4.329321 0.000000 -1.793264
v 0.054838 0.000000 -0.022715
v 4.595983 0.000000 -0.914198
v 0.058216 0.000000 -0.011580
v 4.686024 0.000000 0.000000
v 0.059356 0.000000 -0.000000
v 4.595983 0.000000 0.914198
v 0.058216 0.000000 0.011580
v 4.329321 0.000000 1.793264
v 0.054838 0.000000 0.022715
v 3.896286 0.000000 2.603415
v 0.049353 0.000000 0.032976
v 3.313519 0.000000 3.313519
v 0.041971 0.000000 0.041971
v 2.603415 0.000000 3.896286
v 0.032977 0.000000 0.049353
v 1.793264 0.000000 4.329321
v 0.022715 0.000000 0.054838
v 0.914198 0.000000 4.595983
v 0.011580 0.000000 0.058216
v -0.000000 0.000000 4.686024
v 0.000000 0.000000 0.059356
v -0.914198 0.000000 4.595983
v -0.011580 0.000000 0.058216
v -1.793264 0.000000 4.329321
v -0.022715 0.000000 0.054838
v -2.603415 0.000000 3.896286
v -0.032976 0.000000 0.049353
v -3.313519 0.000000 3.313519
v -0.041971 0.000000 0.041971
v -3.896286 0.000000 2.603415
v -0.049353 0.000000 0.032976
v -4.329321 0.000000 1.793264
v -0.054838 0.000000 0.022715
v -4.595983 0.000000 0.914198
v -0.058216 0.000000 0.011580
v -4.686024 0.000000 0.000000
v -0.059356 0.000000 -0.000000
v -4.595983 0.000000 -0.914198
v -0.058216 0.000000 -0.011580
v -4.329321 0.000000 -1.793264
v -0.054838 0.000000 -0.022715
v -3.896286 0.000000 -2.603415
v -0.049353 0.000000 -0.032977
v -3.313519 0.000000 -3.313519
v -0.041971 0.000000 -0.041971
v -2.603415 0.000000 -3.896286
v -0.032976 0.000000 -0.049353
v -1.793264 0.000000 -4.329321
v -0.022715 0.000000 -0.054838
v -0.914198 0.000000 -4.595983
v -0.011580 0.000000 -0.058216
vn -0.0000 1.0000 -0.0000
vt 0.487598 1.000000
vt 0.487598 0.518688
vt 0.488803 0.518569
vt 0.582703 0.990633
vt 0.489961 0.518218
vt 0.674152 0.962892
vt 0.491029 0.517647
vt 0.758432 0.917844
vt 0.491965 0.516879
vt 0.832304 0.857218
vt 0.492733 0.515944
vt 0.892929 0.783346
vt 0.493303 0.514876
vt 0.937977 0.699066
vt 0.493655 0.513718
vt 0.965718 0.607617
vt 0.493773 0.512513
vt 0.975085 0.512513
vt 0.493655 0.511309
vt 0.965718 0.417409
vt 0.493303 0.510150
vt 0.937977 0.325960
vt 0.492733 0.509083
vt 0.892929 0.241680
vt 0.491965 0.508147
vt 0.832304 0.167808
vt 0.491029 0.507379
vt 0.758432 0.107183
vt 0.489961 0.506808
vt 0.674152 0.062134
vt 0.488803 0.506457
vt 0.582703 0.034393
vt 0.487598 0.506338
vt 0.487598 0.025026
vt 0.486394 0.506457
vt 0.392494 0.034393
vt 0.485235 0.506808
vt 0.301045 0.062134
vt 0.484168 0.507379
vt 0.216765 0.107183
vt 0.483232 0.508147
vt 0.142893 0.167808
vt 0.482464 0.509083
vt 0.082268 0.241680
vt 0.481894 0.510150
vt 0.037219 0.325960
vt 0.481542 0.511309
vt 0.009479 0.417409
vt 0.481424 0.512513
vt 0.000112 0.512513
vt 0.481542 0.513718
vt 0.009479 0.607617
vt 0.481894 0.514876
vt 0.037219 0.699066
vt 0.482464 0.515944
vt 0.082268 0.783346
vt 0.483232 0.516879
vt 0.142893 0.857218
vt 0.484168 0.517647
vt 0.216765 0.917844
vt 0.485235 0.518218
vt 0.301045 0.962892
vt 0.486394 0.518569
vt 0.392494 0.990633
s 0
f 1/1/1 2/2/1 4/3/1 3/4/1
f 3/4/1 4/3/1 6/5/1 5/6/1
f 5/6/1 6/5/1 8/7/1 7/8/1
f 7/8/1 8/7/1 10/9/1 9/10/1
f 9/10/1 10/9/1 12/11/1 11/12/1
f 11/12/1 12/11/1 14/13/1 13/14/1
f 13/14/1 14/13/1 16/15/1 15/16/1
f 15/16/1 16/15/1 18/17/1 17/18/1
f 17/18/1 18/17/1 20/19/1 19/20/1
f 19/20/1 20/19/1 22/21/1 21/22/1
f 21/22/1 22/21/1 24/23/1 23/24/1
f 23/24/1 24/23/1 26/25/1 25/26/1
f 25/26/1 26/25/1 28/27/1 27/28/1
f 27/28/1 28/27/1 30/29/1 29/30/1
f 29/30/1 30/29/1 32/31/1 31/32/1
f 31/32/1 32/31/1 34/33/1 33/34/1
f 33/34/1 34/33/1 36/35/1 35/36/1
f 35/36/1 36/35/1 38/37/1 37/38/1
f 37/38/1 38/37/1 40/39/1 39/40/1
f 39/40/1 40/39/1 42/41/1 41/42/1
f 41/42/1 42/41/1 44/43/1 43/44/1
f 43/44/1 44/43/1 46/45/1 45/46/1
f 45/46/1 46/45/1 48/47/1 47/48/1
f 47/48/1 48/47/1 50/49/1 49/50/1
f 49/50/1 50/49/1 52/51/1 51/52/1
f 51/52/1 52/51/1 54/53/1 53/54/1
f 53/54/1 54/53/1 56/55/1 55/56/1
f 55/56/1 56/55/1 58/57/1 57/58/1
f 57/58/1 58/57/1 60/59/1 59/60/1
f 59/60/1 60/59/1 62/61/1 61/62/1
f 61/62/1 62/61/1 64/63/1 63/64/1
f 63/64/1 64/63/1 2/2/1 1/1/1
