# Blender 5.1.2
# www.blender.org
mtllib Lightning_mesh.mtl
o Plane
v -0.600390 0.100003 -0.000000
v 0.557490 0.100003 -0.000000
v -0.932636 21.900002 -0.307962
v 1.045403 21.900002 0.307963
v -0.866081 20.909092 -0.206203
v -0.831406 19.918182 -0.054086
v -0.568798 18.927273 0.008460
v 0.024361 17.936363 -0.050969
v 0.510320 16.945454 -0.171965
v 0.610726 15.954546 -0.215322
v 0.779520 14.963637 -0.079391
v 0.586548 13.972729 0.213918
v -0.121826 12.981819 0.564978
v -0.508339 11.990910 0.969089
v -0.864088 11.000002 1.248086
v -1.541731 10.009093 1.330065
v -2.338794 9.018184 1.284156
v -2.756814 8.027274 1.099546
v -2.394954 7.036366 0.750450
v -1.571691 6.045456 0.375479
v -1.359274 5.054547 0.107991
v -1.055627 4.063639 -0.012216
v -0.352707 3.072729 -0.022475
v -0.444691 2.081820 -0.004227
v -0.977954 1.090912 0.000034
v 0.639236 1.090912 -0.001479
v 1.183057 2.081821 -0.032272
v 1.211954 3.072731 -0.105965
v 0.827300 4.063639 -0.194281
v 0.738613 5.054548 -0.238636
v 0.814400 6.045458 -0.190724
v 0.201044 7.036366 -0.040730
v -0.187698 8.027275 0.114277
v 0.040234 9.018185 0.111266
v 0.548884 10.009094 -0.016588
v 1.363002 11.000002 -0.234255
v 1.913843 11.990911 -0.533687
v 2.310122 12.981820 -0.933555
v 2.599981 13.972729 -1.254116
v 2.680052 14.963638 -1.454275
v 2.942821 15.954548 -1.432634
v 3.272690 16.945456 -1.126239
v 3.218210 17.936363 -0.567951
v 2.685082 18.927273 -0.003743
v 1.895840 19.918182 0.325023
v 1.332000 20.909092 0.380822
v -2.256482 0.000000 2.256482
v 2.256482 0.000000 2.256482
v -2.256482 0.000000 -2.256482
v 2.256482 0.000000 -2.256482
v 0.000000 -0.086093 -1.000000
v -0.000000 1.913908 -2.552248
v 0.195090 -0.086093 -0.980785
v 0.497919 1.913908 -2.503208
v 0.382683 -0.086093 -0.923879
v 0.976703 1.913908 -2.357970
v 0.555570 -0.086093 -0.831470
v 1.417953 1.913908 -2.122117
v 0.707107 -0.086093 -0.707107
v 1.804712 1.913908 -1.804712
v 0.831470 -0.086093 -0.555570
v 2.122117 1.913908 -1.417953
v 0.923879 -0.086093 -0.382683
v 2.357970 1.913908 -0.976703
v 0.980785 -0.086093 -0.195090
v 2.503208 1.913908 -0.497919
v 1.000000 -0.086093 0.000000
v 2.552248 1.913908 0.000000
v 0.980785 -0.086093 0.195090
v 2.503208 1.913908 0.497919
v 0.923879 -0.086093 0.382683
v 2.357970 1.913908 0.976703
v 0.831470 -0.086093 0.555570
v 2.122117 1.913908 1.417953
v 0.707107 -0.086093 0.707107
v 1.804712 1.913908 1.804712
v 0.555570 -0.086093 0.831470
v 1.417953 1.913908 2.122117
v 0.382683 -0.086093 0.923879
v 0.976703 1.913908 2.357970
v 0.195090 -0.086093 0.980785
v 0.497919 1.913908 2.503208
v 0.000000 -0.086093 1.000000
v -0.000000 1.913908 2.552248
v -0.195090 -0.086093 0.980785
v -0.497919 1.913908 2.503208
v -0.382683 -0.086093 0.923879
v -0.976703 1.913908 2.357970
v -0.555570 -0.086093 0.831470
v -1.417953 1.913908 2.122117
v -0.707107 -0.086093 0.707107
v -1.804712 1.913908 1.804712
v -0.831470 -0.086093 0.555570
v -2.122117 1.913908 1.417953
v -0.923879 -0.086093 0.382683
v -2.357970 1.913908 0.976703
v -0.980785 -0.086093 0.195090
v -2.503208 1.913908 0.497919
v -1.000000 -0.086093 0.000000
v -2.552248 1.913908 0.000000
v -0.980785 -0.086093 -0.195090
v -2.503208 1.913908 -0.497919
v -0.923879 -0.086093 -0.382683
v -2.357970 1.913908 -0.976703
v -0.831470 -0.086093 -0.555570
v -2.122117 1.913908 -1.417953
v -0.707107 -0.086093 -0.707107
v -1.804712 1.913908 -1.804712
v -0.555570 -0.086093 -0.831470
v -1.417953 1.913908 -2.122117
v -0.382683 -0.086093 -0.923879
v -0.976703 1.913908 -2.357970
v -0.195090 -0.086093 -0.980785
v -0.497919 1.913908 -2.503208
vn 0.0005 0.0008 1.0000
vn -0.2766 0.0353 0.9603
vn -0.2468 0.0190 0.9689
vn -0.1820 -0.0230 0.9830
vn -0.0544 -0.1684 0.9842
vn 0.0886 -0.2583 0.9620
vn 0.2666 -0.2465 0.9317
vn 0.4619 -0.0827 0.8831
vn 0.5529 0.0707 0.8303
vn 0.5578 0.0120 0.8299
vn 0.5243 0.1249 0.8423
vn 0.5395 0.0059 0.8420
vn 0.5329 -0.2213 0.8167
vn 0.4808 -0.2762 0.8322
vn 0.4039 -0.2201 0.8879
vn 0.3606 -0.1674 0.9176
vn 0.3185 -0.1126 0.9412
vn 0.2534 -0.0755 0.9644
vn 0.1841 -0.1142 0.9762
vn 0.1295 -0.0081 0.9916
vn 0.0563 0.0632 0.9964
vn 0.0141 0.0188 0.9997
vn 0.0041 0.0058 1.0000
vn 0.0072 0.0101 0.9999
vn 0.0325 0.0413 0.9986
vn 0.0427 0.0511 0.9978
vn 0.0932 0.0532 0.9942
vn 0.1548 -0.0567 0.9863
vn 0.2085 -0.1281 0.9696
vn 0.2657 -0.0677 0.9617
vn 0.3486 -0.1511 0.9250
vn 0.4560 -0.2630 0.8502
vn 0.5207 -0.2752 0.8082
vn 0.5405 -0.0112 0.8413
vn 0.5231 0.1240 0.8432
vn 0.5535 0.0096 0.8328
vn 0.5795 0.1007 0.8087
vn 0.5320 0.0390 0.8458
vn 0.4491 -0.1036 0.8874
vn 0.3148 -0.2295 0.9210
vn 0.1915 -0.2588 0.9468
vn 0.0510 -0.2397 0.9695
vn -0.0847 -0.1368 0.9870
vn -0.2003 -0.0062 0.9797
vn -0.0000 1.0000 -0.0000
vn -0.0000 0.6131 0.7900
vn -0.1541 0.6131 0.7748
vn -0.3023 0.6131 0.7299
vn -0.4389 0.6131 0.6568
vn -0.5586 0.6131 0.5586
vn -0.6568 0.6131 0.4389
vn -0.7299 0.6131 0.3023
vn -0.7748 0.6131 0.1541
vn -0.7900 0.6131 -0.0000
vn -0.7748 0.6131 -0.1541
vn -0.7299 0.6131 -0.3023
vn -0.6568 0.6131 -0.4389
vn -0.5586 0.6131 -0.5586
vn -0.4389 0.6131 -0.6568
vn -0.3023 0.6131 -0.7299
vn -0.1541 0.6131 -0.7748
vn -0.0000 0.6131 -0.7900
vn 0.1541 0.6131 -0.7748
vn 0.3023 0.6131 -0.7299
vn 0.4389 0.6131 -0.6568
vn 0.5586 0.6131 -0.5586
vn 0.6568 0.6131 -0.4389
vn 0.7299 0.6131 -0.3023
vn 0.7748 0.6131 -0.1541
vn 0.7900 0.6131 -0.0000
vn 0.7748 0.6131 0.1541
vn 0.7299 0.6131 0.3023
vn 0.6568 0.6131 0.4389
vn 0.5586 0.6131 0.5586
vn 0.4389 0.6131 0.6568
vn 0.3023 0.6131 0.7299
vn 0.1541 0.6131 0.7748
vt 0.000000 0.954545
vt 1.000000 0.954545
vt 1.000000 1.000000
vt 0.000000 1.000000
vt 0.000000 0.000000
vt 1.000000 0.000000
vt 1.000000 0.045455
vt 0.000000 0.045455
vt 1.000000 0.090909
vt 0.000000 0.090909
vt 1.000000 0.136364
vt 0.000000 0.136364
vt 1.000000 0.181818
vt 0.000000 0.181818
vt 1.000000 0.227273
vt 0.000000 0.227273
vt 1.000000 0.272727
vt 0.000000 0.272727
vt 1.000000 0.318182
vt 0.000000 0.318182
vt 1.000000 0.363636
vt 0.000000 0.363636
vt 1.000000 0.409091
vt 0.000000 0.409091
vt 1.000000 0.454545
vt 0.000000 0.454545
vt 1.000000 0.500000
vt 0.000000 0.500000
vt 1.000000 0.545455
vt 0.000000 0.545454
vt 1.000000 0.590909
vt 0.000000 0.590909
vt 1.000000 0.636364
vt 0.000000 0.636364
vt 1.000000 0.681818
vt 0.000000 0.681818
vt 1.000000 0.727273
vt 0.000000 0.727273
vt 1.000000 0.772727
vt 0.000000 0.772727
vt 1.000000 0.818182
vt 0.000000 0.818182
vt 1.000000 0.863636
vt 0.000000 0.863636
vt 1.000000 0.909091
vt 0.000000 0.909091
vt 0.968750 0.000000
vt 0.968750 1.000000
vt 0.937500 0.000000
vt 0.937500 1.000000
vt 0.906250 0.000000
vt 0.906250 1.000000
vt 0.875000 0.000000
vt 0.875000 1.000000
vt 0.843750 0.000000
vt 0.843750 1.000000
vt 0.812500 0.000000
vt 0.812500 1.000000
vt 0.781250 0.000000
vt 0.781250 1.000000
vt 0.750000 0.000000
vt 0.750000 1.000000
vt 0.718750 0.000000
vt 0.718750 1.000000
vt 0.687500 0.000000
vt 0.687500 1.000000
vt 0.656250 0.000000
vt 0.656250 1.000000
vt 0.625000 0.000000
vt 0.625000 1.000000
vt 0.593750 0.000000
vt 0.593750 1.000000
vt 0.562500 0.000000
vt 0.562500 1.000000
vt 0.531250 0.000000
vt 0.531250 1.000000
vt 0.500000 0.000000
vt 0.500000 1.000000
vt 0.468750 0.000000
vt 0.468750 1.000000
vt 0.437500 0.000000
vt 0.437500 1.000000
vt 0.406250 0.000000
vt 0.406250 1.000000
vt 0.375000 0.000000
vt 0.375000 1.000000
vt 0.343750 0.000000
vt 0.343750 1.000000
vt 0.312500 0.000000
vt 0.312500 1.000000
vt 0.281250 0.000000
vt 0.281250 1.000000
vt 0.250000 0.000000
vt 0.250000 1.000000
vt 0.218750 0.000000
vt 0.218750 1.000000
vt 0.187500 0.000000
vt 0.187500 1.000000
vt 0.156250 0.000000
vt 0.156250 1.000000
vt 0.125000 0.000000
vt 0.125000 1.000000
vt 0.093750 0.000000
vt 0.093750 1.000000
vt 0.062500 0.000000
vt 0.062500 1.000000
vt 0.031250 0.000000
vt 0.031250 1.000000
s 1
usemtl Material.001
f 5/1/3 46/2/44 4/3/2 3/4/2
f 1/5/1 2/6/1 26/7/24 25/8/23
f 25/8/23 26/7/24 27/9/25 24/10/22
f 24/10/22 27/9/25 28/11/26 23/12/21
f 23/12/21 28/11/26 29/13/27 22/14/20
f 22/14/20 29/13/27 30/15/28 21/16/19
f 21/16/19 30/15/28 31/17/29 20/18/18
f 20/18/18 31/17/29 32/19/30 19/20/17
f 19/20/17 32/19/30 33/21/31 18/22/16
f 18/22/16 33/21/31 34/23/32 17/24/15
f 17/24/15 34/23/32 35/25/33 16/26/14
f 16/26/14 35/25/33 36/27/34 15/28/13
f 15/28/13 36/27/34 37/29/35 14/30/12
f 14/30/12 37/29/35 38/31/36 13/32/11
f 13/32/11 38/31/36 39/33/37 12/34/10
f 12/34/10 39/33/37 40/35/38 11/36/9
f 11/36/9 40/35/38 41/37/39 10/38/8
f 10/38/8 41/37/39 42/39/40 9/40/7
f 9/40/7 42/39/40 43/41/41 8/42/6
f 8/42/6 43/41/41 44/43/42 7/44/5
f 7/44/5 44/43/42 45/45/43 6/46/4
f 6/46/4 45/45/43 46/2/44 5/1/3
usemtl Material.003
f 47/5/45 48/6/45 50/3/45 49/4/45
usemtl Material.002
f 51/6/46 53/47/47 54/48/47 52/3/46
f 53/47/47 55/49/48 56/50/48 54/48/47
f 55/49/48 57/51/49 58/52/49 56/50/48
f 57/51/49 59/53/50 60/54/50 58/52/49
f 59/53/50 61/55/51 62/56/51 60/54/50
f 61/55/51 63/57/52 64/58/52 62/56/51
f 63/57/52 65/59/53 66/60/53 64/58/52
f 65/59/53 67/61/54 68/62/54 66/60/53
f 67/61/54 69/63/55 70/64/55 68/62/54
f 69/63/55 71/65/56 72/66/56 70/64/55
f 71/65/56 73/67/57 74/68/57 72/66/56
f 73/67/57 75/69/58 76/70/58 74/68/57
f 75/69/58 77/71/59 78/72/59 76/70/58
f 77/71/59 79/73/60 80/74/60 78/72/59
f 79/73/60 81/75/61 82/76/61 80/74/60
f 81/75/61 83/77/62 84/78/62 82/76/61
f 83/77/62 85/79/63 86/80/63 84/78/62
f 85/79/63 87/81/64 88/82/64 86/80/63
f 87/81/64 89/83/65 90/84/65 88/82/64
f 89/83/65 91/85/66 92/86/66 90/84/65
f 91/85/66 93/87/67 94/88/67 92/86/66
f 93/87/67 95/89/68 96/90/68 94/88/67
f 95/89/68 97/91/69 98/92/69 96/90/68
f 97/91/69 99/93/70 100/94/70 98/92/69
f 99/93/70 101/95/71 102/96/71 100/94/70
f 101/95/71 103/97/72 104/98/72 102/96/71
f 103/97/72 105/99/73 106/100/73 104/98/72
f 105/99/73 107/101/74 108/102/74 106/100/73
f 107/101/74 109/103/75 110/104/75 108/102/74
f 109/103/75 111/105/76 112/106/76 110/104/75
f 111/105/76 113/107/77 114/108/77 112/106/76
f 113/107/77 51/5/46 52/4/46 114/108/77
