# Blender 5.1.2
# www.blender.org
mtllib fire_aura.mtl
o Cylinder
v -0.000000 0.000000 -1.300000
v 0.000000 2.000000 -1.000000
v 0.253617 0.000000 -1.275021
v 0.195090 2.000000 -0.980785
v 0.497489 0.000000 -1.201043
v 0.382683 2.000000 -0.923880
v 0.722241 0.000000 -1.080911
v 0.555570 2.000000 -0.831470
v 0.919239 0.000000 -0.919239
v 0.707107 2.000000 -0.707107
v 1.080911 0.000000 -0.722241
v 0.831470 2.000000 -0.555570
v 1.201043 0.000000 -0.497489
v 0.923880 2.000000 -0.382683
v 1.275021 0.000000 -0.253617
v 0.980785 2.000000 -0.195090
v 1.300000 0.000000 0.000000
v 1.000000 2.000000 0.000000
v 1.275021 0.000000 0.253617
v 0.980785 2.000000 0.195090
v 1.201043 0.000000 0.497488
v 0.923880 2.000000 0.382683
v 1.080911 0.000000 0.722241
v 0.831470 2.000000 0.555570
v 0.919239 0.000000 0.919239
v 0.707107 2.000000 0.707107
v 0.722241 0.000000 1.080911
v 0.555570 2.000000 0.831470
v 0.497489 0.000000 1.201043
v 0.382683 2.000000 0.923880
v 0.253617 0.000000 1.275021
v 0.195090 2.000000 0.980785
v -0.000000 0.000000 1.300000
v 0.000000 2.000000 1.000000
v -0.253617 0.000000 1.275021
v -0.195090 2.000000 0.980785
v -0.497489 0.000000 1.201043
v -0.382683 2.000000 0.923880
v -0.722241 0.000000 1.080911
v -0.555570 2.000000 0.831470
v -0.919239 0.000000 0.919239
v -0.707107 2.000000 0.707107
v -1.080911 0.000000 0.722241
v -0.831470 2.000000 0.555570
v -1.201043 0.000000 0.497488
v -0.923880 2.000000 0.382683
v -1.275021 0.000000 0.253617
v -0.980785 2.000000 0.195090
v -1.300000 0.000000 0.000000
v -1.000000 2.000000 0.000000
v -1.275021 0.000000 -0.253617
v -0.980785 2.000000 -0.195090
v -1.201043 0.000000 -0.497489
v -0.923880 2.000000 -0.382683
v -1.080911 0.000000 -0.722241
v -0.831470 2.000000 -0.555570
v -0.919239 0.000000 -0.919239
v -0.707107 2.000000 -0.707107
v -0.722241 0.000000 -1.080911
v -0.555570 2.000000 -0.831470
v -0.497489 0.000000 -1.201043
v -0.382683 2.000000 -0.923880
v -0.253617 0.000000 -1.275021
v -0.195090 2.000000 -0.980785
v -0.000000 0.285714 -1.087433
v -0.000000 0.571429 -1.001906
v 0.000000 0.857143 -1.000000
v 0.000000 1.142857 -1.000000
v 0.000000 1.428571 -1.000000
v 0.000000 1.714286 -1.000000
v 0.195090 1.714286 -0.980785
v 0.195090 1.428571 -0.980785
v 0.195090 1.142857 -0.980785
v 0.195090 0.857143 -0.980785
v 0.195462 0.571429 -0.982655
v 0.212148 0.285714 -1.066538
v 0.382683 1.714286 -0.923880
v 0.382683 1.428571 -0.923880
v 0.382683 1.142857 -0.923880
v 0.382683 0.857143 -0.923880
v 0.383413 0.571429 -0.925640
v 0.416143 0.285714 -1.004657
v 0.555570 1.714286 -0.831470
v 0.555570 1.428571 -0.831470
v 0.555570 1.142857 -0.831470
v 0.555570 0.857143 -0.831470
v 0.556629 0.571429 -0.833054
v 0.604145 0.285714 -0.904167
v 0.707107 1.714286 -0.707107
v 0.707107 1.428571 -0.707107
v 0.707107 1.142857 -0.707107
v 0.707107 0.857143 -0.707107
v 0.708455 0.571429 -0.708455
v 0.768931 0.285714 -0.768931
v 0.831470 1.714286 -0.555570
v 0.831470 1.428571 -0.555570
v 0.831470 1.142857 -0.555570
v 0.831470 0.857143 -0.555570
v 0.833054 0.571429 -0.556629
v 0.904167 0.285714 -0.604145
v 0.923880 1.714286 -0.382683
v 0.923880 1.428571 -0.382683
v 0.923880 1.142857 -0.382683
v 0.923880 0.857143 -0.382683
v 0.925640 0.571429 -0.383413
v 1.004657 0.285714 -0.416143
v 0.980785 1.714286 -0.195090
v 0.980785 1.428571 -0.195090
v 0.980785 1.142857 -0.195090
v 0.980785 0.857143 -0.195090
v 0.982655 0.571429 -0.195462
v 1.066538 0.285714 -0.212148
v 1.000000 1.714286 0.000000
v 1.000000 1.428571 0.000000
v 1.000000 1.142857 0.000000
v 1.000000 0.857143 0.000000
v 1.001906 0.571429 0.000000
v 1.087433 0.285714 0.000000
v 0.980785 1.714286 0.195090
v 0.980785 1.428571 0.195090
v 0.980785 1.142857 0.195090
v 0.980785 0.857143 0.195090
v 0.982655 0.571429 0.195462
v 1.066538 0.285714 0.212148
v 0.923880 1.714286 0.382683
v 0.923880 1.428571 0.382683
v 0.923880 1.142857 0.382683
v 0.923880 0.857143 0.382683
v 0.925640 0.571429 0.383413
v 1.004657 0.285714 0.416143
v 0.831470 1.714286 0.555570
v 0.831470 1.428571 0.555570
v 0.831470 1.142857 0.555570
v 0.831470 0.857143 0.555570
v 0.833054 0.571429 0.556629
v 0.904167 0.285714 0.604145
v 0.707107 1.714286 0.707107
v 0.707107 1.428571 0.707107
v 0.707107 1.142857 0.707107
v 0.707107 0.857143 0.707107
v 0.708455 0.571429 0.708455
v 0.768931 0.285714 0.768931
v 0.555570 1.714286 0.831470
v 0.555570 1.428571 0.831470
v 0.555570 1.142857 0.831470
v 0.555570 0.857143 0.831470
v 0.556629 0.571429 0.833054
v 0.604145 0.285714 0.904167
v 0.382683 1.714286 0.923880
v 0.382683 1.428571 0.923880
v 0.382683 1.142857 0.923880
v 0.382683 0.857143 0.923880
v 0.383413 0.571429 0.925640
v 0.416143 0.285714 1.004657
v 0.195090 1.714286 0.980785
v 0.195090 1.428571 0.980785
v 0.195090 1.142857 0.980785
v 0.195090 0.857143 0.980785
v 0.195462 0.571429 0.982655
v 0.212148 0.285714 1.066538
v 0.000000 1.714286 1.000000
v 0.000000 1.428571 1.000000
v 0.000000 1.142857 1.000000
v 0.000000 0.857143 1.000000
v -0.000000 0.571429 1.001906
v -0.000000 0.285714 1.087433
v -0.195090 1.714286 0.980785
v -0.195090 1.428571 0.980785
v -0.195090 1.142857 0.980785
v -0.195090 0.857143 0.980785
v -0.195462 0.571429 0.982655
v -0.212148 0.285714 1.066538
v -0.382683 1.714286 0.923880
v -0.382683 1.428571 0.923880
v -0.382683 1.142857 0.923880
v -0.382683 0.857143 0.923880
v -0.383413 0.571429 0.925640
v -0.416143 0.285714 1.004657
v -0.555570 1.714286 0.831470
v -0.555570 1.428571 0.831470
v -0.555570 1.142857 0.831470
v -0.555570 0.857143 0.831470
v -0.556629 0.571429 0.833054
v -0.604145 0.285714 0.904167
v -0.707107 1.714286 0.707107
v -0.707107 1.428571 0.707107
v -0.707107 1.142857 0.707107
v -0.707107 0.857143 0.707107
v -0.708455 0.571429 0.708455
v -0.768931 0.285714 0.768931
v -0.831470 1.714286 0.555570
v -0.831470 1.428571 0.555570
v -0.831470 1.142857 0.555570
v -0.831470 0.857143 0.555570
v -0.833054 0.571429 0.556629
v -0.904167 0.285714 0.604145
v -0.923880 1.714286 0.382683
v -0.923880 1.428571 0.382683
v -0.923880 1.142857 0.382683
v -0.923880 0.857143 0.382683
v -0.925640 0.571429 0.383413
v -1.004657 0.285714 0.416143
v -0.980785 1.714286 0.195090
v -0.980785 1.428571 0.195090
v -0.980785 1.142857 0.195090
v -0.980785 0.857143 0.195090
v -0.982655 0.571429 0.195462
v -1.066538 0.285714 0.212148
v -1.000000 1.714286 0.000000
v -1.000000 1.428571 0.000000
v -1.000000 1.142857 0.000000
v -1.000000 0.857143 0.000000
v -1.001906 0.571429 0.000000
v -1.087433 0.285714 0.000000
v -0.980785 1.714286 -0.195090
v -0.980785 1.428571 -0.195090
v -0.980785 1.142857 -0.195090
v -0.980785 0.857143 -0.195090
v -0.982655 0.571429 -0.195462
v -1.066538 0.285714 -0.212148
v -0.923880 1.714286 -0.382683
v -0.923880 1.428571 -0.382683
v -0.923880 1.142857 -0.382683
v -0.923880 0.857143 -0.382683
v -0.925640 0.571429 -0.383413
v -1.004657 0.285714 -0.416143
v -0.831470 1.714286 -0.555570
v -0.831470 1.428571 -0.555570
v -0.831470 1.142857 -0.555570
v -0.831470 0.857143 -0.555570
v -0.833054 0.571429 -0.556629
v -0.904167 0.285714 -0.604145
v -0.707107 1.714286 -0.707107
v -0.707107 1.428571 -0.707107
v -0.707107 1.142857 -0.707107
v -0.707107 0.857143 -0.707107
v -0.708455 0.571429 -0.708455
v -0.768931 0.285714 -0.768931
v -0.555570 1.714286 -0.831470
v -0.555570 1.428571 -0.831470
v -0.555570 1.142857 -0.831470
v -0.555570 0.857143 -0.831470
v -0.556629 0.571429 -0.833054
v -0.604145 0.285714 -0.904167
v -0.382683 1.714286 -0.923880
v -0.382683 1.428571 -0.923880
v -0.382683 1.142857 -0.923880
v -0.382683 0.857143 -0.923880
v -0.383413 0.571429 -0.925640
v -0.416143 0.285714 -1.004657
v -0.195090 1.714286 -0.980785
v -0.195090 1.428571 -0.980785
v -0.195090 1.142857 -0.980785
v -0.195090 0.857143 -0.980785
v -0.195462 0.571429 -0.982655
v -0.212148 0.285714 -1.066538
v 0.229784 0.142857 -1.155205
v 0.450738 0.142857 -1.088179
v 0.654371 0.142857 -0.979335
v 0.832856 0.142857 -0.832856
v 0.979335 0.142857 -0.654371
v 1.088179 0.142857 -0.450739
v 1.155205 0.142857 -0.229784
v 1.177836 0.142857 0.000000
v 1.155205 0.142857 0.229785
v 1.088179 0.142857 0.450738
v 0.979335 0.142857 0.654371
v 0.832856 0.142857 0.832856
v 0.654371 0.142857 0.979335
v 0.450738 0.142857 1.088179
v 0.229784 0.142857 1.155205
v -0.000000 0.142857 1.177836
v -0.229785 0.142857 1.155205
v -0.450738 0.142857 1.088179
v -0.654371 0.142857 0.979335
v -0.832856 0.142857 0.832856
v -0.979335 0.142857 0.654371
v -1.088179 0.142857 0.450738
v -1.155205 0.142857 0.229785
v -1.177836 0.142857 0.000000
v -1.155205 0.142857 -0.229784
v -1.088179 0.142857 -0.450739
v -0.979335 0.142857 -0.654371
v -0.832856 0.142857 -0.832856
v -0.654371 0.142857 -0.979335
v -0.450738 0.142857 -1.088179
v -0.229785 0.142857 -1.155205
v -0.000000 0.142857 -1.177836
v -0.000000 0.428571 -1.028789
v 0.200707 0.428571 -1.009021
v 0.393701 0.428571 -0.950477
v 0.571565 0.428571 -0.855407
v 0.727464 0.428571 -0.727464
v 0.855407 0.428571 -0.571565
v 0.950477 0.428571 -0.393701
v 1.009021 0.428571 -0.200707
v 1.028789 0.428571 0.000000
v 1.009021 0.428571 0.200707
v 0.950477 0.428571 0.393701
v 0.855407 0.428571 0.571565
v 0.727464 0.428571 0.727464
v 0.571565 0.428571 0.855407
v 0.393701 0.428571 0.950477
v 0.200707 0.428571 1.009021
v -0.000000 0.428571 1.028789
v -0.200707 0.428571 1.009021
v -0.393701 0.428571 0.950477
v -0.571565 0.428571 0.855407
v -0.727464 0.428571 0.727464
v -0.855407 0.428571 0.571565
v -0.950477 0.428571 0.393701
v -1.009021 0.428571 0.200707
v -1.028789 0.428571 0.000000
v -1.009021 0.428571 -0.200707
v -0.950477 0.428571 -0.393701
v -0.855407 0.428571 -0.571565
v -0.727464 0.428571 -0.727464
v -0.571565 0.428571 -0.855407
v -0.393701 0.428571 -0.950477
v -0.200707 0.428571 -1.009021
vn -0.0000 0.6499 -0.7600
vn -0.0000 -0.0000 -1.0000
vn 0.1483 0.6499 -0.7454
vn 0.1951 -0.0000 -0.9808
vn 0.2908 0.6499 -0.7022
vn 0.3827 -0.0000 -0.9239
vn 0.4222 0.6499 -0.6319
vn 0.5556 -0.0000 -0.8315
vn 0.5374 0.6499 -0.5374
vn 0.7071 -0.0000 -0.7071
vn 0.6319 0.6499 -0.4222
vn 0.8315 -0.0000 -0.5556
vn 0.7022 0.6499 -0.2908
vn 0.9239 -0.0000 -0.3827
vn 0.7454 0.6499 -0.1483
vn 0.9808 -0.0000 -0.1951
vn 0.7600 0.6499 -0.0000
vn 1.0000 -0.0000 -0.0000
vn 0.7454 0.6499 0.1483
vn 0.9808 -0.0000 0.1951
vn 0.7022 0.6499 0.2908
vn 0.9239 -0.0000 0.3827
vn 0.6319 0.6499 0.4222
vn 0.8315 -0.0000 0.5556
vn 0.5374 0.6499 0.5374
vn 0.7071 -0.0000 0.7071
vn 0.4222 0.6499 0.6319
vn 0.5556 -0.0000 0.8315
vn 0.2908 0.6499 0.7022
vn 0.3827 -0.0000 0.9239
vn 0.1483 0.6499 0.7454
vn 0.1951 -0.0000 0.9808
vn -0.0000 0.6499 0.7600
vn -0.0000 -0.0000 1.0000
vn -0.1483 0.6499 0.7454
vn -0.1951 -0.0000 0.9808
vn -0.2908 0.6499 0.7022
vn -0.3827 -0.0000 0.9239
vn -0.4222 0.6499 0.6319
vn -0.5556 -0.0000 0.8315
vn -0.5374 0.6499 0.5374
vn -0.7071 -0.0000 0.7071
vn -0.6319 0.6499 0.4222
vn -0.8315 -0.0000 0.5556
vn -0.7022 0.6499 0.2908
vn -0.9239 -0.0000 0.3827
vn -0.7454 0.6499 0.1483
vn -0.9808 -0.0000 0.1951
vn -0.7600 0.6499 -0.0000
vn -1.0000 -0.0000 -0.0000
vn -0.7454 0.6499 -0.1483
vn -0.9808 -0.0000 -0.1951
vn -0.7022 0.6499 -0.2908
vn -0.9239 -0.0000 -0.3827
vn -0.6319 0.6499 -0.4222
vn -0.8315 -0.0000 -0.5556
vn -0.5374 0.6499 -0.5374
vn -0.7071 -0.0000 -0.7071
vn -0.4222 0.6499 -0.6319
vn -0.5556 -0.0000 -0.8315
vn -0.2908 0.6499 -0.7022
vn -0.3827 -0.0000 -0.9239
vn -0.1483 0.6499 -0.7454
vn -0.1951 -0.0000 -0.9808
vn -0.0000 0.4612 -0.8873
vn -0.0000 0.0967 -0.9953
vn -0.0000 0.0033 -1.0000
vn 0.1951 0.0033 -0.9808
vn 0.1942 0.0967 -0.9762
vn 0.1731 0.4612 -0.8702
vn 0.3827 0.0033 -0.9239
vn 0.3809 0.0967 -0.9195
vn 0.3395 0.4612 -0.8197
vn 0.5556 0.0033 -0.8315
vn 0.5530 0.0967 -0.8276
vn 0.4929 0.4612 -0.7377
vn 0.7071 0.0033 -0.7071
vn 0.7038 0.0967 -0.7038
vn 0.6274 0.4612 -0.6274
vn 0.8315 0.0033 -0.5556
vn 0.8276 0.0967 -0.5530
vn 0.7377 0.4612 -0.4929
vn 0.9239 0.0033 -0.3827
vn 0.9195 0.0967 -0.3809
vn 0.8197 0.4612 -0.3395
vn 0.9808 0.0033 -0.1951
vn 0.9762 0.0967 -0.1942
vn 0.8702 0.4612 -0.1731
vn 1.0000 0.0033 -0.0000
vn 0.9953 0.0967 -0.0000
vn 0.8873 0.4612 -0.0000
vn 0.9808 0.0033 0.1951
vn 0.9762 0.0967 0.1942
vn 0.8702 0.4612 0.1731
vn 0.9239 0.0033 0.3827
vn 0.9195 0.0967 0.3809
vn 0.8197 0.4612 0.3395
vn 0.8315 0.0033 0.5556
vn 0.8276 0.0967 0.5530
vn 0.7377 0.4612 0.4929
vn 0.7071 0.0033 0.7071
vn 0.7038 0.0967 0.7038
vn 0.6274 0.4612 0.6274
vn 0.5556 0.0033 0.8315
vn 0.5530 0.0967 0.8276
vn 0.4929 0.4612 0.7377
vn 0.3827 0.0033 0.9239
vn 0.3809 0.0967 0.9195
vn 0.3395 0.4612 0.8197
vn 0.1951 0.0033 0.9808
vn 0.1942 0.0967 0.9762
vn 0.1731 0.4612 0.8702
vn -0.0000 0.0033 1.0000
vn -0.0000 0.0967 0.9953
vn -0.0000 0.4612 0.8873
vn -0.1951 0.0033 0.9808
vn -0.1942 0.0967 0.9762
vn -0.1731 0.4612 0.8702
vn -0.3827 0.0033 0.9239
vn -0.3809 0.0967 0.9195
vn -0.3395 0.4612 0.8197
vn -0.5556 0.0033 0.8315
vn -0.5530 0.0967 0.8276
vn -0.4929 0.4612 0.7377
vn -0.7071 0.0033 0.7071
vn -0.7038 0.0967 0.7038
vn -0.6274 0.4612 0.6274
vn -0.8315 0.0033 0.5556
vn -0.8276 0.0967 0.5530
vn -0.7377 0.4612 0.4929
vn -0.9239 0.0033 0.3827
vn -0.9195 0.0967 0.3809
vn -0.8197 0.4612 0.3395
vn -0.9808 0.0033 0.1951
vn -0.9762 0.0967 0.1942
vn -0.8702 0.4612 0.1731
vn -1.0000 0.0033 -0.0000
vn -0.9953 0.0967 -0.0000
vn -0.8873 0.4612 -0.0000
vn -0.9808 0.0033 -0.1951
vn -0.9762 0.0967 -0.1942
vn -0.8702 0.4612 -0.1731
vn -0.9239 0.0033 -0.3827
vn -0.9195 0.0967 -0.3809
vn -0.8197 0.4612 -0.3395
vn -0.8315 0.0033 -0.5556
vn -0.8276 0.0967 -0.5530
vn -0.7377 0.4612 -0.4929
vn -0.7071 0.0033 -0.7071
vn -0.7038 0.0967 -0.7038
vn -0.6274 0.4612 -0.6274
vn -0.5556 0.0033 -0.8315
vn -0.5530 0.0967 -0.8276
vn -0.4929 0.4612 -0.7377
vn -0.3827 0.0033 -0.9239
vn -0.3809 0.0967 -0.9195
vn -0.3395 0.4612 -0.8197
vn -0.1951 0.0033 -0.9808
vn -0.1942 0.0967 -0.9762
vn -0.1731 0.4612 -0.8702
vn 0.1567 0.5960 -0.7876
vn 0.3073 0.5960 -0.7419
vn 0.4461 0.5960 -0.6677
vn 0.5678 0.5960 -0.5678
vn 0.6677 0.5960 -0.4461
vn 0.7419 0.5960 -0.3073
vn 0.7876 0.5960 -0.1567
vn 0.8030 0.5960 -0.0000
vn 0.7876 0.5960 0.1567
vn 0.7419 0.5960 0.3073
vn 0.6677 0.5960 0.4461
vn 0.5678 0.5960 0.5678
vn 0.4461 0.5960 0.6677
vn 0.3073 0.5960 0.7419
vn 0.1567 0.5960 0.7876
vn -0.0000 0.5960 0.8030
vn -0.1567 0.5960 0.7876
vn -0.3073 0.5960 0.7419
vn -0.4461 0.5960 0.6677
vn -0.5678 0.5960 0.5678
vn -0.6677 0.5960 0.4461
vn -0.7419 0.5960 0.3073
vn -0.7876 0.5960 0.1567
vn -0.8030 0.5960 -0.0000
vn -0.7876 0.5960 -0.1567
vn -0.7419 0.5960 -0.3073
vn -0.6677 0.5960 -0.4461
vn -0.5678 0.5960 -0.5678
vn -0.4461 0.5960 -0.6677
vn -0.3073 0.5960 -0.7419
vn -0.1567 0.5960 -0.7876
vn -0.0000 0.5960 -0.8030
vn -0.0000 0.2856 -0.9584
vn 0.1870 0.2856 -0.9399
vn 0.3667 0.2856 -0.8854
vn 0.5324 0.2856 -0.7968
vn 0.6777 0.2856 -0.6777
vn 0.7968 0.2856 -0.5324
vn 0.8854 0.2856 -0.3667
vn 0.9399 0.2856 -0.1870
vn 0.9584 0.2856 -0.0000
vn 0.9399 0.2856 0.1870
vn 0.8854 0.2856 0.3667
vn 0.7968 0.2856 0.5324
vn 0.6777 0.2856 0.6777
vn 0.5324 0.2856 0.7968
vn 0.3667 0.2856 0.8854
vn 0.1870 0.2856 0.9399
vn -0.0000 0.2856 0.9584
vn -0.1870 0.2856 0.9399
vn -0.3667 0.2856 0.8854
vn -0.5324 0.2856 0.7968
vn -0.6777 0.2856 0.6777
vn -0.7968 0.2856 0.5324
vn -0.8854 0.2856 0.3667
vn -0.9399 0.2856 0.1870
vn -0.9584 0.2856 -0.0000
vn -0.9399 0.2856 -0.1870
vn -0.8854 0.2856 -0.3667
vn -0.7968 0.2856 -0.5324
vn -0.6777 0.2856 -0.6777
vn -0.5324 0.2856 -0.7968
vn -0.3667 0.2856 -0.8854
vn -0.1870 0.2856 -0.9399
vt 1.000000 0.857143
vt 1.000000 1.000000
vt 0.968750 1.000000
vt 0.968750 0.857143
vt 0.937500 1.000000
vt 0.937500 0.857143
vt 0.906250 1.000000
vt 0.906250 0.857143
vt 0.875000 1.000000
vt 0.875000 0.857143
vt 0.843750 1.000000
vt 0.843750 0.857143
vt 0.812500 1.000000
vt 0.812500 0.857143
vt 0.781250 1.000000
vt 0.781250 0.857143
vt 0.750000 1.000000
vt 0.750000 0.857143
vt 0.718750 1.000000
vt 0.718750 0.857143
vt 0.687500 1.000000
vt 0.687500 0.857143
vt 0.656250 1.000000
vt 0.656250 0.857143
vt 0.625000 1.000000
vt 0.625000 0.857143
vt 0.593750 1.000000
vt 0.593750 0.857143
vt 0.562500 1.000000
vt 0.562500 0.857143
vt 0.531250 1.000000
vt 0.531250 0.857143
vt 0.500000 1.000000
vt 0.500000 0.857143
vt 0.468750 1.000000
vt 0.468750 0.857143
vt 0.437500 1.000000
vt 0.437500 0.857143
vt 0.406250 1.000000
vt 0.406250 0.857143
vt 0.375000 1.000000
vt 0.375000 0.857143
vt 0.343750 1.000000
vt 0.343750 0.857143
vt 0.312500 1.000000
vt 0.312500 0.857143
vt 0.281250 1.000000
vt 0.281250 0.857143
vt 0.250000 1.000000
vt 0.250000 0.857143
vt 0.218750 1.000000
vt 0.218750 0.857143
vt 0.187500 1.000000
vt 0.187500 0.857143
vt 0.156250 1.000000
vt 0.156250 0.857143
vt 0.125000 1.000000
vt 0.125000 0.857143
vt 0.093750 1.000000
vt 0.093750 0.857143
vt 0.062500 1.000000
vt 0.062500 0.857143
vt 0.031250 1.000000
vt 0.031250 0.857143
vt 0.000000 1.000000
vt 0.000000 0.857143
vt 0.031250 0.071429
vt 0.031250 0.142857
vt 0.000000 0.142857
vt 0.000000 0.071429
vt 0.031250 0.214286
vt 0.031250 0.285714
vt 0.000000 0.285714
vt 0.000000 0.214286
vt 0.031250 0.428571
vt 0.000000 0.428571
vt 0.031250 0.571429
vt 0.000000 0.571429
vt 0.031250 0.714286
vt 0.000000 0.714286
vt 0.062500 0.071429
vt 0.062500 0.142857
vt 0.062500 0.214286
vt 0.062500 0.285714
vt 0.062500 0.428571
vt 0.062500 0.571429
vt 0.062500 0.714286
vt 0.093750 0.071429
vt 0.093750 0.142857
vt 0.093750 0.214286
vt 0.093750 0.285714
vt 0.093750 0.428571
vt 0.093750 0.571429
vt 0.093750 0.714286
vt 0.125000 0.071429
vt 0.125000 0.142857
vt 0.125000 0.214286
vt 0.125000 0.285714
vt 0.125000 0.428571
vt 0.125000 0.571429
vt 0.125000 0.714286
vt 0.156250 0.071429
vt 0.156250 0.142857
vt 0.156250 0.214286
vt 0.156250 0.285714
vt 0.156250 0.428571
vt 0.156250 0.571429
vt 0.156250 0.714286
vt 0.187500 0.071429
vt 0.187500 0.142857
vt 0.187500 0.214286
vt 0.187500 0.285714
vt 0.187500 0.428571
vt 0.187500 0.571429
vt 0.187500 0.714286
vt 0.218750 0.071429
vt 0.218750 0.142857
vt 0.218750 0.214286
vt 0.218750 0.285714
vt 0.218750 0.428571
vt 0.218750 0.571429
vt 0.218750 0.714286
vt 0.250000 0.071429
vt 0.250000 0.142857
vt 0.250000 0.214286
vt 0.250000 0.285714
vt 0.250000 0.428571
vt 0.250000 0.571429
vt 0.250000 0.714286
vt 0.281250 0.071429
vt 0.281250 0.142857
vt 0.281250 0.214286
vt 0.281250 0.285714
vt 0.281250 0.428571
vt 0.281250 0.571429
vt 0.281250 0.714286
vt 0.312500 0.071429
vt 0.312500 0.142857
vt 0.312500 0.214286
vt 0.312500 0.285714
vt 0.312500 0.428571
vt 0.312500 0.571429
vt 0.312500 0.714286
vt 0.343750 0.071429
vt 0.343750 0.142857
vt 0.343750 0.214286
vt 0.343750 0.285714
vt 0.343750 0.428571
vt 0.343750 0.571429
vt 0.343750 0.714286
vt 0.375000 0.071429
vt 0.375000 0.142857
vt 0.375000 0.214286
vt 0.375000 0.285714
vt 0.375000 0.428571
vt 0.375000 0.571429
vt 0.375000 0.714286
vt 0.406250 0.071429
vt 0.406250 0.142857
vt 0.406250 0.214286
vt 0.406250 0.285714
vt 0.406250 0.428571
vt 0.406250 0.571429
vt 0.406250 0.714286
vt 0.437500 0.071429
vt 0.437500 0.142857
vt 0.437500 0.214286
vt 0.437500 0.285714
vt 0.437500 0.428571
vt 0.437500 0.571429
vt 0.437500 0.714286
vt 0.468750 0.071429
vt 0.468750 0.142857
vt 0.468750 0.214286
vt 0.468750 0.285714
vt 0.468750 0.428571
vt 0.468750 0.571429
vt 0.468750 0.714286
vt 0.500000 0.071429
vt 0.500000 0.142857
vt 0.500000 0.214286
vt 0.500000 0.285714
vt 0.500000 0.428571
vt 0.500000 0.571429
vt 0.500000 0.714286
vt 0.531250 0.071429
vt 0.531250 0.142857
vt 0.531250 0.214286
vt 0.531250 0.285714
vt 0.531250 0.428571
vt 0.531250 0.571429
vt 0.531250 0.714286
vt 0.562500 0.071429
vt 0.562500 0.142857
vt 0.562500 0.214286
vt 0.562500 0.285714
vt 0.562500 0.428571
vt 0.562500 0.571429
vt 0.562500 0.714286
vt 0.593750 0.071429
vt 0.593750 0.142857
vt 0.593750 0.214286
vt 0.593750 0.285714
vt 0.593750 0.428571
vt 0.593750 0.571429
vt 0.593750 0.714286
vt 0.625000 0.071429
vt 0.625000 0.142857
vt 0.625000 0.214286
vt 0.625000 0.285714
vt 0.625000 0.428571
vt 0.625000 0.571429
vt 0.625000 0.714286
vt 0.656250 0.071429
vt 0.656250 0.142857
vt 0.656250 0.214286
vt 0.656250 0.285714
vt 0.656250 0.428571
vt 0.656250 0.571429
vt 0.656250 0.714286
vt 0.687500 0.071429
vt 0.687500 0.142857
vt 0.687500 0.214286
vt 0.687500 0.285714
vt 0.687500 0.428571
vt 0.687500 0.571429
vt 0.687500 0.714286
vt 0.718750 0.071429
vt 0.718750 0.142857
vt 0.718750 0.214286
vt 0.718750 0.285714
vt 0.718750 0.428571
vt 0.718750 0.571429
vt 0.718750 0.714286
vt 0.750000 0.071429
vt 0.750000 0.142857
vt 0.750000 0.214286
vt 0.750000 0.285714
vt 0.750000 0.428571
vt 0.750000 0.571429
vt 0.750000 0.714286
vt 0.781250 0.071429
vt 0.781250 0.142857
vt 0.781250 0.214286
vt 0.781250 0.285714
vt 0.781250 0.428571
vt 0.781250 0.571429
vt 0.781250 0.714286
vt 0.812500 0.071429
vt 0.812500 0.142857
vt 0.812500 0.214286
vt 0.812500 0.285714
vt 0.812500 0.428571
vt 0.812500 0.571429
vt 0.812500 0.714286
vt 0.843750 0.071429
vt 0.843750 0.142857
vt 0.843750 0.214286
vt 0.843750 0.285714
vt 0.843750 0.428571
vt 0.843750 0.571429
vt 0.843750 0.714286
vt 0.875000 0.071429
vt 0.875000 0.142857
vt 0.875000 0.214286
vt 0.875000 0.285714
vt 0.875000 0.428571
vt 0.875000 0.571429
vt 0.875000 0.714286
vt 0.906250 0.071429
vt 0.906250 0.142857
vt 0.906250 0.214286
vt 0.906250 0.285714
vt 0.906250 0.428571
vt 0.906250 0.571429
vt 0.906250 0.714286
vt 0.937500 0.071429
vt 0.937500 0.142857
vt 0.937500 0.214286
vt 0.937500 0.285714
vt 0.937500 0.428571
vt 0.937500 0.571429
vt 0.937500 0.714286
vt 0.968750 0.071429
vt 0.968750 0.142857
vt 0.968750 0.214286
vt 0.968750 0.285714
vt 0.968750 0.428571
vt 0.968750 0.571429
vt 0.968750 0.714286
vt 1.000000 0.071429
vt 1.000000 0.142857
vt 1.000000 0.214286
vt 1.000000 0.285714
vt 1.000000 0.428571
vt 1.000000 0.571429
vt 1.000000 0.714286
vt 1.000000 0.000000
vt 0.968750 0.000000
vt 0.937500 0.000000
vt 0.906250 0.000000
vt 0.875000 0.000000
vt 0.843750 0.000000
vt 0.812500 0.000000
vt 0.781250 0.000000
vt 0.750000 0.000000
vt 0.718750 0.000000
vt 0.687500 0.000000
vt 0.656250 0.000000
vt 0.625000 0.000000
vt 0.593750 0.000000
vt 0.562500 0.000000
vt 0.531250 0.000000
vt 0.500000 0.000000
vt 0.468750 0.000000
vt 0.437500 0.000000
vt 0.406250 0.000000
vt 0.375000 0.000000
vt 0.343750 0.000000
vt 0.312500 0.000000
vt 0.281250 0.000000
vt 0.250000 0.000000
vt 0.218750 0.000000
vt 0.187500 0.000000
vt 0.156250 0.000000
vt 0.125000 0.000000
vt 0.093750 0.000000
vt 0.062500 0.000000
vt 0.031250 0.000000
vt 0.000000 0.000000
s 1
f 70/1/2 2/2/2 4/3/4 71/4/4
f 71/4/4 4/3/4 6/5/6 77/6/6
f 77/6/6 6/5/6 8/7/8 83/8/8
f 83/8/8 8/7/8 10/9/10 89/10/10
f 89/10/10 10/9/10 12/11/12 95/12/12
f 95/12/12 12/11/12 14/13/14 101/14/14
f 101/14/14 14/13/14 16/15/16 107/16/16
f 107/16/16 16/15/16 18/17/18 113/18/18
f 113/18/18 18/17/18 20/19/20 119/20/20
f 119/20/20 20/19/20 22/21/22 125/22/22
f 125/22/22 22/21/22 24/23/24 131/24/24
f 131/24/24 24/23/24 26/25/26 137/26/26
f 137/26/26 26/25/26 28/27/28 143/28/28
f 143/28/28 28/27/28 30/29/30 149/30/30
f 149/30/30 30/29/30 32/31/32 155/32/32
f 155/32/32 32/31/32 34/33/34 161/34/34
f 161/34/34 34/33/34 36/35/36 167/36/36
f 167/36/36 36/35/36 38/37/38 173/38/38
f 173/38/38 38/37/38 40/39/40 179/40/40
f 179/40/40 40/39/40 42/41/42 185/42/42
f 185/42/42 42/41/42 44/43/44 191/44/44
f 191/44/44 44/43/44 46/45/46 197/46/46
f 197/46/46 46/45/46 48/47/48 203/48/48
f 203/48/48 48/47/48 50/49/50 209/50/50
f 209/50/50 50/49/50 52/51/52 215/52/52
f 215/52/52 52/51/52 54/53/54 221/54/54
f 221/54/54 54/53/54 56/55/56 227/56/56
f 227/56/56 56/55/56 58/57/58 233/58/58
f 233/58/58 58/57/58 60/59/60 239/60/60
f 239/60/60 60/59/60 62/61/62 245/62/62
f 245/62/62 62/61/62 64/63/64 251/64/64
f 251/64/64 64/63/64 2/65/2 70/66/2
f 287/67/191 256/68/160 65/69/65 288/70/192
f 320/71/224 255/72/159 66/73/66 289/74/193
f 255/72/159 254/75/158 67/76/67 66/73/66
f 254/75/158 253/77/64 68/78/2 67/76/67
f 253/77/64 252/79/64 69/80/2 68/78/2
f 252/79/64 251/64/64 70/66/2 69/80/2
f 286/81/190 250/82/157 256/68/160 287/67/191
f 319/83/223 249/84/156 255/72/159 320/71/224
f 249/84/156 248/85/155 254/75/158 255/72/159
f 248/85/155 247/86/62 253/77/64 254/75/158
f 247/86/62 246/87/62 252/79/64 253/77/64
f 246/87/62 245/62/62 251/64/64 252/79/64
f 285/88/189 244/89/154 250/82/157 286/81/190
f 318/90/222 243/91/153 249/84/156 319/83/223
f 243/91/153 242/92/152 248/85/155 249/84/156
f 242/92/152 241/93/60 247/86/62 248/85/155
f 241/93/60 240/94/60 246/87/62 247/86/62
f 240/94/60 239/60/60 245/62/62 246/87/62
f 284/95/188 238/96/151 244/89/154 285/88/189
f 317/97/221 237/98/150 243/91/153 318/90/222
f 237/98/150 236/99/149 242/92/152 243/91/153
f 236/99/149 235/100/58 241/93/60 242/92/152
f 235/100/58 234/101/58 240/94/60 241/93/60
f 234/101/58 233/58/58 239/60/60 240/94/60
f 283/102/187 232/103/148 238/96/151 284/95/188
f 316/104/220 231/105/147 237/98/150 317/97/221
f 231/105/147 230/106/146 236/99/149 237/98/150
f 230/106/146 229/107/56 235/100/58 236/99/149
f 229/107/56 228/108/56 234/101/58 235/100/58
f 228/108/56 227/56/56 233/58/58 234/101/58
f 282/109/186 226/110/145 232/103/148 283/102/187
f 315/111/219 225/112/144 231/105/147 316/104/220
f 225/112/144 224/113/143 230/106/146 231/105/147
f 224/113/143 223/114/54 229/107/56 230/106/146
f 223/114/54 222/115/54 228/108/56 229/107/56
f 222/115/54 221/54/54 227/56/56 228/108/56
f 281/116/185 220/117/142 226/110/145 282/109/186
f 314/118/218 219/119/141 225/112/144 315/111/219
f 219/119/141 218/120/140 224/113/143 225/112/144
f 218/120/140 217/121/52 223/114/54 224/113/143
f 217/121/52 216/122/52 222/115/54 223/114/54
f 216/122/52 215/52/52 221/54/54 222/115/54
f 280/123/184 214/124/139 220/117/142 281/116/185
f 313/125/217 213/126/138 219/119/141 314/118/218
f 213/126/138 212/127/137 218/120/140 219/119/141
f 212/127/137 211/128/50 217/121/52 218/120/140
f 211/128/50 210/129/50 216/122/52 217/121/52
f 210/129/50 209/50/50 215/52/52 216/122/52
f 279/130/183 208/131/136 214/124/139 280/123/184
f 312/132/216 207/133/135 213/126/138 313/125/217
f 207/133/135 206/134/134 212/127/137 213/126/138
f 206/134/134 205/135/48 211/128/50 212/127/137
f 205/135/48 204/136/48 210/129/50 211/128/50
f 204/136/48 203/48/48 209/50/50 210/129/50
f 278/137/182 202/138/133 208/131/136 279/130/183
f 311/139/215 201/140/132 207/133/135 312/132/216
f 201/140/132 200/141/131 206/134/134 207/133/135
f 200/141/131 199/142/46 205/135/48 206/134/134
f 199/142/46 198/143/46 204/136/48 205/135/48
f 198/143/46 197/46/46 203/48/48 204/136/48
f 277/144/181 196/145/130 202/138/133 278/137/182
f 310/146/214 195/147/129 201/140/132 311/139/215
f 195/147/129 194/148/128 200/141/131 201/140/132
f 194/148/128 193/149/44 199/142/46 200/141/131
f 193/149/44 192/150/44 198/143/46 199/142/46
f 192/150/44 191/44/44 197/46/46 198/143/46
f 276/151/180 190/152/127 196/145/130 277/144/181
f 309/153/213 189/154/126 195/147/129 310/146/214
f 189/154/126 188/155/125 194/148/128 195/147/129
f 188/155/125 187/156/42 193/149/44 194/148/128
f 187/156/42 186/157/42 192/150/44 193/149/44
f 186/157/42 185/42/42 191/44/44 192/150/44
f 275/158/179 184/159/124 190/152/127 276/151/180
f 308/160/212 183/161/123 189/154/126 309/153/213
f 183/161/123 182/162/122 188/155/125 189/154/126
f 182/162/122 181/163/40 187/156/42 188/155/125
f 181/163/40 180/164/40 186/157/42 187/156/42
f 180/164/40 179/40/40 185/42/42 186/157/42
f 274/165/178 178/166/121 184/159/124 275/158/179
f 307/167/211 177/168/120 183/161/123 308/160/212
f 177/168/120 176/169/119 182/162/122 183/161/123
f 176/169/119 175/170/38 181/163/40 182/162/122
f 175/170/38 174/171/38 180/164/40 181/163/40
f 174/171/38 173/38/38 179/40/40 180/164/40
f 273/172/177 172/173/118 178/166/121 274/165/178
f 306/174/210 171/175/117 177/168/120 307/167/211
f 171/175/117 170/176/116 176/169/119 177/168/120
f 170/176/116 169/177/36 175/170/38 176/169/119
f 169/177/36 168/178/36 174/171/38 175/170/38
f 168/178/36 167/36/36 173/38/38 174/171/38
f 272/179/176 166/180/115 172/173/118 273/172/177
f 305/181/209 165/182/114 171/175/117 306/174/210
f 165/182/114 164/183/113 170/176/116 171/175/117
f 164/183/113 163/184/34 169/177/36 170/176/116
f 163/184/34 162/185/34 168/178/36 169/177/36
f 162/185/34 161/34/34 167/36/36 168/178/36
f 271/186/175 160/187/112 166/180/115 272/179/176
f 304/188/208 159/189/111 165/182/114 305/181/209
f 159/189/111 158/190/110 164/183/113 165/182/114
f 158/190/110 157/191/32 163/184/34 164/183/113
f 157/191/32 156/192/32 162/185/34 163/184/34
f 156/192/32 155/32/32 161/34/34 162/185/34
f 270/193/174 154/194/109 160/187/112 271/186/175
f 303/195/207 153/196/108 159/189/111 304/188/208
f 153/196/108 152/197/107 158/190/110 159/189/111
f 152/197/107 151/198/30 157/191/32 158/190/110
f 151/198/30 150/199/30 156/192/32 157/191/32
f 150/199/30 149/30/30 155/32/32 156/192/32
f 269/200/173 148/201/106 154/194/109 270/193/174
f 302/202/206 147/203/105 153/196/108 303/195/207
f 147/203/105 146/204/104 152/197/107 153/196/108
f 146/204/104 145/205/28 151/198/30 152/197/107
f 145/205/28 144/206/28 150/199/30 151/198/30
f 144/206/28 143/28/28 149/30/30 150/199/30
f 268/207/172 142/208/103 148/201/106 269/200/173
f 301/209/205 141/210/102 147/203/105 302/202/206
f 141/210/102 140/211/101 146/204/104 147/203/105
f 140/211/101 139/212/26 145/205/28 146/204/104
f 139/212/26 138/213/26 144/206/28 145/205/28
f 138/213/26 137/26/26 143/28/28 144/206/28
f 267/214/171 136/215/100 142/208/103 268/207/172
f 300/216/204 135/217/99 141/210/102 301/209/205
f 135/217/99 134/218/98 140/211/101 141/210/102
f 134/218/98 133/219/24 139/212/26 140/211/101
f 133/219/24 132/220/24 138/213/26 139/212/26
f 132/220/24 131/24/24 137/26/26 138/213/26
f 266/221/170 130/222/97 136/215/100 267/214/171
f 299/223/203 129/224/96 135/217/99 300/216/204
f 129/224/96 128/225/95 134/218/98 135/217/99
f 128/225/95 127/226/22 133/219/24 134/218/98
f 127/226/22 126/227/22 132/220/24 133/219/24
f 126/227/22 125/22/22 131/24/24 132/220/24
f 265/228/169 124/229/94 130/222/97 266/221/170
f 298/230/202 123/231/93 129/224/96 299/223/203
f 123/231/93 122/232/92 128/225/95 129/224/96
f 122/232/92 121/233/20 127/226/22 128/225/95
f 121/233/20 120/234/20 126/227/22 127/226/22
f 120/234/20 119/20/20 125/22/22 126/227/22
f 264/235/168 118/236/91 124/229/94 265/228/169
f 297/237/201 117/238/90 123/231/93 298/230/202
f 117/238/90 116/239/89 122/232/92 123/231/93
f 116/239/89 115/240/18 121/233/20 122/232/92
f 115/240/18 114/241/18 120/234/20 121/233/20
f 114/241/18 113/18/18 119/20/20 120/234/20
f 263/242/167 112/243/88 118/236/91 264/235/168
f 296/244/200 111/245/87 117/238/90 297/237/201
f 111/245/87 110/246/86 116/239/89 117/238/90
f 110/246/86 109/247/16 115/240/18 116/239/89
f 109/247/16 108/248/16 114/241/18 115/240/18
f 108/248/16 107/16/16 113/18/18 114/241/18
f 262/249/166 106/250/85 112/243/88 263/242/167
f 295/251/199 105/252/84 111/245/87 296/244/200
f 105/252/84 104/253/83 110/246/86 111/245/87
f 104/253/83 103/254/14 109/247/16 110/246/86
f 103/254/14 102/255/14 108/248/16 109/247/16
f 102/255/14 101/14/14 107/16/16 108/248/16
f 261/256/165 100/257/82 106/250/85 262/249/166
f 294/258/198 99/259/81 105/252/84 295/251/199
f 99/259/81 98/260/80 104/253/83 105/252/84
f 98/260/80 97/261/12 103/254/14 104/253/83
f 97/261/12 96/262/12 102/255/14 103/254/14
f 96/262/12 95/12/12 101/14/14 102/255/14
f 260/263/164 94/264/79 100/257/82 261/256/165
f 293/265/197 93/266/78 99/259/81 294/258/198
f 93/266/78 92/267/77 98/260/80 99/259/81
f 92/267/77 91/268/10 97/261/12 98/260/80
f 91/268/10 90/269/10 96/262/12 97/261/12
f 90/269/10 89/10/10 95/12/12 96/262/12
f 259/270/163 88/271/76 94/264/79 260/263/164
f 292/272/196 87/273/75 93/266/78 293/265/197
f 87/273/75 86/274/74 92/267/77 93/266/78
f 86/274/74 85/275/8 91/268/10 92/267/77
f 85/275/8 84/276/8 90/269/10 91/268/10
f 84/276/8 83/8/8 89/10/10 90/269/10
f 258/277/162 82/278/73 88/271/76 259/270/163
f 291/279/195 81/280/72 87/273/75 292/272/196
f 81/280/72 80/281/71 86/274/74 87/273/75
f 80/281/71 79/282/6 85/275/8 86/274/74
f 79/282/6 78/283/6 84/276/8 85/275/8
f 78/283/6 77/6/6 83/8/8 84/276/8
f 257/284/161 76/285/70 82/278/73 258/277/162
f 290/286/194 75/287/69 81/280/72 291/279/195
f 75/287/69 74/288/68 80/281/71 81/280/72
f 74/288/68 73/289/4 79/282/6 80/281/71
f 73/289/4 72/290/4 78/283/6 79/282/6
f 72/290/4 71/4/4 77/6/6 78/283/6
f 288/291/192 65/292/65 76/285/70 257/284/161
f 289/293/193 66/294/66 75/287/69 290/286/194
f 66/294/66 67/295/67 74/288/68 75/287/69
f 67/295/67 68/296/2 73/289/4 74/288/68
f 68/296/2 69/297/2 72/290/4 73/289/4
f 69/297/2 70/1/2 71/4/4 72/290/4
f 1/298/1 288/291/192 257/284/161 3/299/3
f 3/299/3 257/284/161 258/277/162 5/300/5
f 5/300/5 258/277/162 259/270/163 7/301/7
f 7/301/7 259/270/163 260/263/164 9/302/9
f 9/302/9 260/263/164 261/256/165 11/303/11
f 11/303/11 261/256/165 262/249/166 13/304/13
f 13/304/13 262/249/166 263/242/167 15/305/15
f 15/305/15 263/242/167 264/235/168 17/306/17
f 17/306/17 264/235/168 265/228/169 19/307/19
f 19/307/19 265/228/169 266/221/170 21/308/21
f 21/308/21 266/221/170 267/214/171 23/309/23
f 23/309/23 267/214/171 268/207/172 25/310/25
f 25/310/25 268/207/172 269/200/173 27/311/27
f 27/311/27 269/200/173 270/193/174 29/312/29
f 29/312/29 270/193/174 271/186/175 31/313/31
f 31/313/31 271/186/175 272/179/176 33/314/33
f 33/314/33 272/179/176 273/172/177 35/315/35
f 35/315/35 273/172/177 274/165/178 37/316/37
f 37/316/37 274/165/178 275/158/179 39/317/39
f 39/317/39 275/158/179 276/151/180 41/318/41
f 41/318/41 276/151/180 277/144/181 43/319/43
f 43/319/43 277/144/181 278/137/182 45/320/45
f 45/320/45 278/137/182 279/130/183 47/321/47
f 47/321/47 279/130/183 280/123/184 49/322/49
f 49/322/49 280/123/184 281/116/185 51/323/51
f 51/323/51 281/116/185 282/109/186 53/324/53
f 53/324/53 282/109/186 283/102/187 55/325/55
f 55/325/55 283/102/187 284/95/188 57/326/57
f 57/326/57 284/95/188 285/88/189 59/327/59
f 59/327/59 285/88/189 286/81/190 61/328/61
f 61/328/61 286/81/190 287/67/191 63/329/63
f 63/329/63 287/67/191 288/70/192 1/330/1
f 65/292/65 289/293/193 290/286/194 76/285/70
f 76/285/70 290/286/194 291/279/195 82/278/73
f 82/278/73 291/279/195 292/272/196 88/271/76
f 88/271/76 292/272/196 293/265/197 94/264/79
f 94/264/79 293/265/197 294/258/198 100/257/82
f 100/257/82 294/258/198 295/251/199 106/250/85
f 106/250/85 295/251/199 296/244/200 112/243/88
f 112/243/88 296/244/200 297/237/201 118/236/91
f 118/236/91 297/237/201 298/230/202 124/229/94
f 124/229/94 298/230/202 299/223/203 130/222/97
f 130/222/97 299/223/203 300/216/204 136/215/100
f 136/215/100 300/216/204 301/209/205 142/208/103
f 142/208/103 301/209/205 302/202/206 148/201/106
f 148/201/106 302/202/206 303/195/207 154/194/109
f 154/194/109 303/195/207 304/188/208 160/187/112
f 160/187/112 304/188/208 305/181/209 166/180/115
f 166/180/115 305/181/209 306/174/210 172/173/118
f 172/173/118 306/174/210 307/167/211 178/166/121
f 178/166/121 307/167/211 308/160/212 184/159/124
f 184/159/124 308/160/212 309/153/213 190/152/127
f 190/152/127 309/153/213 310/146/214 196/145/130
f 196/145/130 310/146/214 311/139/215 202/138/133
f 202/138/133 311/139/215 312/132/216 208/131/136
f 208/131/136 312/132/216 313/125/217 214/124/139
f 214/124/139 313/125/217 314/118/218 220/117/142
f 220/117/142 314/118/218 315/111/219 226/110/145
f 226/110/145 315/111/219 316/104/220 232/103/148
f 232/103/148 316/104/220 317/97/221 238/96/151
f 238/96/151 317/97/221 318/90/222 244/89/154
f 244/89/154 318/90/222 319/83/223 250/82/157
f 250/82/157 319/83/223 320/71/224 256/68/160
f 256/68/160 320/71/224 289/74/193 65/69/65
