# Blender 4.5.3 LTS
# www.blender.org
mtllib fireball_mesh.mtl
o Sphere
v 0.000000 -0.875676 -1.678130
v 0.000000 -0.885918 -1.141646
v 0.000000 -0.816072 -0.149203
v 0.170836 -0.858851 -1.678130
v 0.172834 -0.868895 -1.141646
v 0.172393 -0.866681 -0.685590
v 0.159208 -0.800391 -0.149203
v 0.137950 -0.693520 0.439799
v 0.108386 -0.544895 0.813352
v 0.074658 -0.375330 0.923880
v 0.038060 -0.191342 0.980785
v 0.335107 -0.809019 -1.678129
v 0.339026 -0.818481 -1.141647
v 0.338162 -0.816395 -0.685590
v 0.312297 -0.753952 -0.149203
v 0.270598 -0.653281 0.439799
v 0.212608 -0.513280 0.813351
v 0.146447 -0.353553 0.923880
v 0.074658 -0.180240 0.980785
v 0.486500 -0.728098 -1.678130
v 0.492189 -0.736614 -1.141646
v 0.490935 -0.734736 -0.685590
v 0.453385 -0.678539 -0.149203
v 0.392847 -0.587938 0.439799
v 0.308658 -0.461940 0.813352
v 0.212608 -0.318190 0.923880
v 0.108386 -0.162212 0.980785
v 0.619197 -0.619197 -1.678129
v 0.626438 -0.626438 -1.141647
v 0.624842 -0.624842 -0.685590
v 0.577050 -0.577050 -0.149203
v 0.500000 -0.500000 0.439799
v 0.392847 -0.392847 0.813351
v 0.270598 -0.270598 0.923880
v 0.137950 -0.137950 0.980785
v 0.728098 -0.486500 -1.678129
v 0.736613 -0.492189 -1.141647
v 0.734736 -0.490935 -0.685590
v 0.678539 -0.453385 -0.149203
v 0.587938 -0.392847 0.439799
v 0.461940 -0.308658 0.813351
v 0.318190 -0.212607 0.923880
v 0.162212 -0.108386 0.980785
v 0.809019 -0.335107 -1.678129
v 0.818481 -0.339026 -1.141647
v 0.816395 -0.338162 -0.685590
v 0.753952 -0.312297 -0.149203
v 0.653281 -0.270598 0.439799
v 0.513280 -0.212607 0.813351
v 0.353553 -0.146447 0.923880
v 0.180240 -0.074658 0.980785
v 0.858850 -0.170836 -1.678129
v 0.868895 -0.172834 -1.141647
v 0.866680 -0.172393 -0.685590
v 0.800391 -0.159208 -0.149203
v 0.693520 -0.137950 0.439799
v 0.544895 -0.108386 0.813351
v 0.375330 -0.074658 0.923880
v 0.191342 -0.038060 0.980785
v 0.875676 0.000000 -1.678130
v 0.885917 0.000000 -1.141646
v 0.883660 -0.000000 -0.685590
v 0.816072 0.000000 -0.149203
v 0.707107 0.000000 0.439799
v 0.555570 0.000000 0.813351
v 0.382683 0.000000 0.923880
v 0.195090 0.000000 0.980785
v 0.858850 0.170836 -1.678130
v 0.868895 0.172834 -1.141646
v 0.866680 0.172393 -0.685590
v 0.800391 0.159208 -0.149203
v 0.693520 0.137950 0.439799
v 0.544895 0.108386 0.813351
v 0.375330 0.074658 0.923880
v 0.191342 0.038060 0.980785
v 0.809019 0.335107 -1.678130
v 0.818481 0.339026 -1.141646
v 0.816395 0.338162 -0.685590
v 0.753952 0.312297 -0.149203
v 0.653281 0.270598 0.439799
v 0.513280 0.212608 0.813351
v 0.353553 0.146447 0.923880
v 0.180240 0.074658 0.980785
v 0.728098 0.486500 -1.678129
v 0.736613 0.492189 -1.141647
v 0.734736 0.490935 -0.685590
v 0.678539 0.453385 -0.149203
v 0.587938 0.392847 0.439799
v 0.461940 0.308658 0.813351
v 0.318190 0.212608 0.923880
v 0.162212 0.108386 0.980785
v 0.619196 0.619197 -1.678129
v 0.626438 0.626438 -1.141647
v 0.624842 0.624842 -0.685590
v 0.577050 0.577050 -0.149203
v 0.500000 0.500000 0.439799
v 0.392847 0.392847 0.813351
v 0.270598 0.270598 0.923880
v 0.137950 0.137950 0.980785
v 0.486499 0.728098 -1.678129
v 0.492189 0.736613 -1.141647
v 0.490935 0.734736 -0.685590
v 0.453385 0.678539 -0.149203
v 0.392847 0.587938 0.439799
v 0.308658 0.461940 0.813351
v 0.212607 0.318190 0.923880
v 0.108386 0.162212 0.980785
v 0.335106 0.809019 -1.678129
v 0.339026 0.818481 -1.141647
v 0.338162 0.816395 -0.685590
v 0.312297 0.753952 -0.149203
v 0.270598 0.653282 0.439799
v 0.212607 0.513280 0.813351
v 0.146447 0.353553 0.923880
v 0.074658 0.180240 0.980785
v 0.170836 0.858850 -1.678129
v 0.172834 0.868895 -1.141647
v 0.172393 0.866680 -0.685590
v 0.159208 0.800391 -0.149203
v 0.137950 0.693520 0.439799
v 0.108386 0.544895 0.813351
v 0.074658 0.375330 0.923880
v 0.038060 0.191342 0.980785
v -0.000000 0.875676 -1.678129
v -0.000000 0.885917 -1.141647
v 0.000000 0.883659 -0.685590
v -0.000000 0.816072 -0.149203
v -0.000000 0.707107 0.439799
v -0.000000 0.555570 0.813351
v -0.000000 0.382683 0.923880
v -0.000000 0.195090 0.980785
v -0.170836 0.858850 -1.678129
v -0.172834 0.868894 -1.141647
v -0.172393 0.866680 -0.685590
v -0.159208 0.800391 -0.149203
v -0.137950 0.693520 0.439798
v -0.108386 0.544895 0.813351
v -0.074658 0.375330 0.923880
v -0.038060 0.191342 0.980785
v -0.335107 0.809019 -1.678129
v -0.339026 0.818481 -1.141647
v -0.338162 0.816395 -0.685590
v -0.312297 0.753952 -0.149203
v -0.270598 0.653281 0.439799
v -0.212607 0.513280 0.813351
v -0.146447 0.353553 0.923880
v -0.074658 0.180240 0.980785
v -0.486500 0.728098 -1.678130
v -0.492189 0.736613 -1.141646
v -0.490935 0.734736 -0.685590
v -0.453385 0.678539 -0.149203
v -0.392847 0.587938 0.439799
v -0.308658 0.461940 0.813351
v -0.212607 0.318190 0.923880
v -0.108386 0.162212 0.980785
v -0.619196 0.619196 -1.678130
v -0.626438 0.626438 -1.141646
v -0.624842 0.624842 -0.685590
v -0.577050 0.577050 -0.149203
v -0.500000 0.500000 0.439798
v -0.392847 0.392847 0.813351
v -0.270598 0.270598 0.923880
v -0.137950 0.137950 0.980785
v 0.000000 0.000000 1.000000
v -0.728098 0.486499 -1.678130
v -0.736613 0.492189 -1.141646
v -0.734736 0.490935 -0.685590
v -0.678539 0.453385 -0.149203
v -0.587938 0.392847 0.439799
v -0.461939 0.308658 0.813351
v -0.318190 0.212608 0.923880
v -0.162212 0.108386 0.980785
v -0.809019 0.335106 -1.678129
v -0.818481 0.339026 -1.141647
v -0.816395 0.338162 -0.685591
v -0.753952 0.312297 -0.149203
v -0.653281 0.270598 0.439798
v -0.513280 0.212607 0.813351
v -0.353553 0.146447 0.923880
v -0.180240 0.074658 0.980785
v -0.858850 0.170835 -1.678129
v -0.868894 0.172834 -1.141647
v -0.866680 0.172393 -0.685590
v -0.800391 0.159208 -0.149203
v -0.693520 0.137950 0.439798
v -0.544895 0.108386 0.813351
v -0.375330 0.074658 0.923880
v -0.191342 0.038060 0.980785
v -0.875675 -0.000000 -1.678130
v -0.885917 -0.000000 -1.141646
v -0.883659 0.000000 -0.685590
v -0.816072 -0.000000 -0.149203
v -0.707107 0.000000 0.439799
v -0.555570 -0.000000 0.813351
v -0.382683 0.000000 0.923880
v -0.195090 0.000000 0.980785
v -0.858850 -0.170836 -1.678130
v -0.868894 -0.172834 -1.141646
v -0.866680 -0.172393 -0.685590
v -0.800391 -0.159208 -0.149203
v -0.693520 -0.137950 0.439798
v -0.544895 -0.108386 0.813351
v -0.375330 -0.074658 0.923880
v -0.191342 -0.038060 0.980785
v -0.809018 -0.335107 -1.678129
v -0.818480 -0.339026 -1.141647
v -0.816395 -0.338162 -0.685590
v -0.753952 -0.312297 -0.149203
v -0.653281 -0.270598 0.439798
v -0.513279 -0.212607 0.813351
v -0.353553 -0.146447 0.923880
v -0.180240 -0.074658 0.980785
v -0.728097 -0.486500 -1.678130
v -0.736613 -0.492189 -1.141646
v -0.734736 -0.490935 -0.685590
v -0.678539 -0.453385 -0.149203
v -0.587938 -0.392847 0.439798
v -0.461939 -0.308658 0.813351
v -0.318189 -0.212607 0.923880
v -0.162211 -0.108386 0.980785
v -0.619196 -0.619196 -1.678130
v -0.626438 -0.626438 -1.141646
v -0.624842 -0.624842 -0.685590
v -0.577049 -0.577050 -0.149203
v -0.500000 -0.500000 0.439798
v -0.392847 -0.392847 0.813351
v -0.270598 -0.270598 0.923880
v -0.137950 -0.137950 0.980785
v -0.486499 -0.728098 -1.678130
v -0.492189 -0.736613 -1.141646
v -0.490935 -0.734736 -0.685590
v -0.453385 -0.678539 -0.149203
v -0.392847 -0.587938 0.439798
v -0.308658 -0.461939 0.813351
v -0.212607 -0.318189 0.923880
v -0.108386 -0.162211 0.980785
v -0.335106 -0.809019 -1.678129
v -0.339025 -0.818481 -1.141647
v -0.338162 -0.816395 -0.685591
v -0.312297 -0.753952 -0.149203
v -0.270598 -0.653281 0.439798
v -0.212607 -0.513279 0.813351
v -0.146446 -0.353553 0.923879
v -0.074658 -0.180240 0.980785
v -0.170835 -0.858850 -1.678129
v -0.172834 -0.868894 -1.141647
v -0.172393 -0.866680 -0.685590
v -0.159207 -0.800391 -0.149203
v -0.137950 -0.693520 0.439798
v -0.108386 -0.544894 0.813351
v -0.074658 -0.375330 0.923880
v -0.038060 -0.191341 0.980785
v 0.000000 -0.883659 -0.685590
v 0.000000 -0.707107 0.439799
v 0.000000 -0.555569 0.813352
v 0.000000 -0.382683 0.923879
v 0.000000 -0.195090 0.980785
vn -0.0000 -0.9998 -0.0191
vn -0.0000 -1.0000 -0.0071
vn -0.0000 -0.9882 0.1533
vn 0.1951 -0.9806 -0.0191
vn 0.1951 -0.9808 -0.0071
vn 0.1947 -0.9787 0.0649
vn 0.1928 -0.9692 0.1533
vn 0.1874 -0.9419 0.2787
vn 0.1515 -0.7615 0.6302
vn 0.0830 -0.4172 0.9050
vn 0.0392 -0.1971 0.9796
vn 0.3826 -0.9237 -0.0191
vn 0.3827 -0.9239 -0.0071
vn 0.3819 -0.9219 0.0649
vn 0.3782 -0.9130 0.1533
vn 0.3675 -0.8873 0.2787
vn 0.2971 -0.7173 0.6302
vn 0.1628 -0.3930 0.9050
vn 0.0769 -0.1857 0.9796
vn 0.5555 -0.8313 -0.0191
vn 0.5556 -0.8314 -0.0071
vn 0.5544 -0.8297 0.0649
vn 0.5490 -0.8216 0.1533
vn 0.5336 -0.7985 0.2787
vn 0.4314 -0.6456 0.6302
vn 0.2363 -0.3537 0.9050
vn 0.1117 -0.1671 0.9796
vn 0.7070 -0.7070 -0.0191
vn 0.7071 -0.7071 -0.0071
vn 0.7056 -0.7056 0.0649
vn 0.6988 -0.6988 0.1533
vn 0.6791 -0.6791 0.2787
vn 0.5490 -0.5490 0.6302
vn 0.3008 -0.3008 0.9050
vn 0.1421 -0.1421 0.9796
vn 0.8313 -0.5555 -0.0191
vn 0.8314 -0.5556 -0.0071
vn 0.8297 -0.5544 0.0649
vn 0.8216 -0.5490 0.1533
vn 0.7985 -0.5336 0.2787
vn 0.6456 -0.4314 0.6302
vn 0.3537 -0.2363 0.9050
vn 0.1671 -0.1117 0.9796
vn 0.9237 -0.3826 -0.0191
vn 0.9239 -0.3827 -0.0071
vn 0.9219 -0.3819 0.0649
vn 0.9130 -0.3782 0.1533
vn 0.8873 -0.3675 0.2787
vn 0.7173 -0.2971 0.6302
vn 0.3930 -0.1628 0.9050
vn 0.1857 -0.0769 0.9796
vn 0.9806 -0.1951 -0.0191
vn 0.9808 -0.1951 -0.0071
vn 0.9787 -0.1947 0.0649
vn 0.9692 -0.1928 0.1533
vn 0.9419 -0.1874 0.2787
vn 0.7615 -0.1515 0.6302
vn 0.4172 -0.0830 0.9050
vn 0.1971 -0.0392 0.9796
vn 0.9998 -0.0000 -0.0191
vn 1.0000 -0.0000 -0.0071
vn 0.9979 -0.0000 0.0649
vn 0.9882 -0.0000 0.1533
vn 0.9604 -0.0000 0.2787
vn 0.7764 -0.0000 0.6302
vn 0.4254 -0.0000 0.9050
vn 0.2010 -0.0000 0.9796
vn 0.9806 0.1951 -0.0191
vn 0.9808 0.1951 -0.0071
vn 0.9787 0.1947 0.0649
vn 0.9692 0.1928 0.1533
vn 0.9419 0.1874 0.2787
vn 0.7615 0.1515 0.6302
vn 0.4172 0.0830 0.9050
vn 0.1971 0.0392 0.9796
vn 0.9237 0.3826 -0.0191
vn 0.9239 0.3827 -0.0071
vn 0.9219 0.3819 0.0649
vn 0.9130 0.3782 0.1533
vn 0.8873 0.3675 0.2787
vn 0.7173 0.2971 0.6302
vn 0.3930 0.1628 0.9050
vn 0.1857 0.0769 0.9796
vn 0.8313 0.5555 -0.0191
vn 0.8314 0.5556 -0.0071
vn 0.8297 0.5544 0.0649
vn 0.8216 0.5490 0.1533
vn 0.7985 0.5336 0.2787
vn 0.6456 0.4314 0.6302
vn 0.3537 0.2363 0.9050
vn 0.1671 0.1117 0.9796
vn 0.7070 0.7070 -0.0191
vn 0.7071 0.7071 -0.0071
vn 0.7056 0.7056 0.0649
vn 0.6988 0.6988 0.1533
vn 0.6791 0.6791 0.2787
vn 0.5490 0.5490 0.6302
vn 0.3008 0.3008 0.9050
vn 0.1421 0.1421 0.9796
vn 0.5555 0.8313 -0.0191
vn 0.5556 0.8314 -0.0071
vn 0.5544 0.8297 0.0649
vn 0.5490 0.8216 0.1533
vn 0.5336 0.7985 0.2787
vn 0.4314 0.6456 0.6302
vn 0.2363 0.3537 0.9050
vn 0.1117 0.1671 0.9796
vn 0.3826 0.9237 -0.0191
vn 0.3827 0.9239 -0.0071
vn 0.3819 0.9219 0.0649
vn 0.3782 0.9130 0.1533
vn 0.3675 0.8873 0.2787
vn 0.2971 0.7173 0.6302
vn 0.1628 0.3930 0.9050
vn 0.0769 0.1857 0.9796
vn 0.1951 0.9806 -0.0191
vn 0.1951 0.9808 -0.0071
vn 0.1947 0.9787 0.0649
vn 0.1928 0.9692 0.1533
vn 0.1874 0.9419 0.2787
vn 0.1515 0.7615 0.6302
vn 0.0830 0.4172 0.9050
vn 0.0392 0.1971 0.9796
vn -0.0000 0.9998 -0.0191
vn -0.0000 1.0000 -0.0071
vn -0.0000 0.9979 0.0649
vn -0.0000 0.9882 0.1533
vn -0.0000 0.9604 0.2787
vn -0.0000 0.7764 0.6302
vn -0.0000 0.4254 0.9050
vn -0.0000 0.2010 0.9796
vn -0.1951 0.9806 -0.0191
vn -0.1951 0.9808 -0.0071
vn -0.1947 0.9787 0.0649
vn -0.1928 0.9692 0.1533
vn -0.1874 0.9419 0.2787
vn -0.1515 0.7615 0.6302
vn -0.0830 0.4172 0.9050
vn -0.0392 0.1971 0.9796
vn -0.3826 0.9237 -0.0191
vn -0.3827 0.9239 -0.0071
vn -0.3819 0.9219 0.0649
vn -0.3782 0.9130 0.1533
vn -0.3675 0.8873 0.2787
vn -0.2971 0.7173 0.6302
vn -0.1628 0.3930 0.9050
vn -0.0769 0.1857 0.9796
vn -0.5555 0.8313 -0.0191
vn -0.5556 0.8314 -0.0071
vn -0.5544 0.8297 0.0649
vn -0.5490 0.8216 0.1533
vn -0.5336 0.7985 0.2787
vn -0.4314 0.6456 0.6302
vn -0.2363 0.3537 0.9050
vn -0.1117 0.1671 0.9796
vn -0.7070 0.7070 -0.0191
vn -0.7071 0.7071 -0.0071
vn -0.7056 0.7056 0.0649
vn -0.6988 0.6988 0.1533
vn -0.6791 0.6791 0.2787
vn -0.5490 0.5490 0.6302
vn -0.3008 0.3008 0.9050
vn -0.1421 0.1421 0.9796
vn -0.0000 -0.0000 1.0000
vn -0.8313 0.5555 -0.0191
vn -0.8314 0.5556 -0.0071
vn -0.8297 0.5544 0.0649
vn -0.8216 0.5490 0.1533
vn -0.7985 0.5336 0.2787
vn -0.6456 0.4314 0.6302
vn -0.3537 0.2363 0.9050
vn -0.1671 0.1117 0.9796
vn -0.9237 0.3826 -0.0191
vn -0.9239 0.3827 -0.0071
vn -0.9219 0.3819 0.0649
vn -0.9130 0.3782 0.1533
vn -0.8873 0.3675 0.2787
vn -0.7173 0.2971 0.6302
vn -0.3930 0.1628 0.9050
vn -0.1857 0.0769 0.9796
vn -0.9806 0.1951 -0.0191
vn -0.9808 0.1951 -0.0071
vn -0.9787 0.1947 0.0649
vn -0.9692 0.1928 0.1533
vn -0.9419 0.1874 0.2787
vn -0.7615 0.1515 0.6302
vn -0.4172 0.0830 0.9050
vn -0.1971 0.0392 0.9796
vn -0.9998 -0.0000 -0.0191
vn -1.0000 -0.0000 -0.0071
vn -0.9979 -0.0000 0.0649
vn -0.9882 -0.0000 0.1533
vn -0.9604 -0.0000 0.2787
vn -0.7764 -0.0000 0.6302
vn -0.4254 -0.0000 0.9050
vn -0.2010 -0.0000 0.9796
vn -0.9806 -0.1951 -0.0191
vn -0.9808 -0.1951 -0.0071
vn -0.9787 -0.1947 0.0649
vn -0.9692 -0.1928 0.1533
vn -0.9419 -0.1874 0.2787
vn -0.7615 -0.1515 0.6302
vn -0.4172 -0.0830 0.9050
vn -0.1971 -0.0392 0.9796
vn -0.9237 -0.3826 -0.0191
vn -0.9239 -0.3827 -0.0071
vn -0.9219 -0.3819 0.0649
vn -0.9130 -0.3782 0.1533
vn -0.8873 -0.3675 0.2787
vn -0.7173 -0.2971 0.6302
vn -0.3930 -0.1628 0.9050
vn -0.1857 -0.0769 0.9796
vn -0.8313 -0.5555 -0.0191
vn -0.8314 -0.5556 -0.0071
vn -0.8297 -0.5544 0.0649
vn -0.8216 -0.5490 0.1533
vn -0.7985 -0.5336 0.2787
vn -0.6456 -0.4314 0.6302
vn -0.3537 -0.2363 0.9050
vn -0.1671 -0.1117 0.9796
vn -0.7070 -0.7070 -0.0191
vn -0.7071 -0.7071 -0.0071
vn -0.7056 -0.7056 0.0649
vn -0.6988 -0.6988 0.1533
vn -0.6791 -0.6791 0.2787
vn -0.5490 -0.5490 0.6302
vn -0.3008 -0.3008 0.9050
vn -0.1421 -0.1421 0.9796
vn -0.5555 -0.8313 -0.0191
vn -0.5556 -0.8314 -0.0071
vn -0.5544 -0.8297 0.0649
vn -0.5490 -0.8216 0.1533
vn -0.5336 -0.7985 0.2787
vn -0.4314 -0.6456 0.6302
vn -0.2363 -0.3537 0.9050
vn -0.1117 -0.1671 0.9796
vn -0.3826 -0.9237 -0.0191
vn -0.3827 -0.9239 -0.0071
vn -0.3819 -0.9219 0.0649
vn -0.3782 -0.9130 0.1533
vn -0.3675 -0.8873 0.2787
vn -0.2971 -0.7173 0.6302
vn -0.1628 -0.3930 0.9050
vn -0.0769 -0.1857 0.9796
vn -0.1951 -0.9806 -0.0191
vn -0.1951 -0.9808 -0.0071
vn -0.1947 -0.9787 0.0649
vn -0.1928 -0.9692 0.1533
vn -0.1874 -0.9419 0.2787
vn -0.1515 -0.7615 0.6302
vn -0.0830 -0.4172 0.9050
vn -0.0392 -0.1971 0.9796
vn -0.0000 -0.9979 0.0649
vn -0.0000 -0.9604 0.2787
vn -0.0000 -0.7764 0.6302
vn -0.0000 -0.4254 0.9050
vn -0.0000 -0.2010 0.9796
vt 0.750000 0.247465
vt 0.750000 0.371198
vt 0.718750 0.371198
vt 0.718750 0.247466
vt 0.750000 0.123733
vt 0.718750 0.123733
vt 0.734375 0.000000
vt 0.750000 0.866129
vt 0.750000 0.989862
vt 0.718750 0.989862
vt 0.718750 0.866129
vt 0.750000 0.742396
vt 0.718750 0.742396
vt 0.750000 0.618664
vt 0.718750 0.618664
vt 0.750000 0.494931
vt 0.718750 0.494931
vt 0.687500 0.494931
vt 0.687500 0.371198
vt 0.687500 0.247466
vt 0.687500 0.123733
vt 0.703125 0.000000
vt 0.687500 0.989862
vt 0.687500 0.866129
vt 0.687500 0.742396
vt 0.687500 0.618664
vt 0.656250 0.866129
vt 0.656250 0.742396
vt 0.656250 0.618664
vt 0.656250 0.494931
vt 0.656250 0.371198
vt 0.656250 0.247466
vt 0.656250 0.123733
vt 0.671875 0.000000
vt 0.656250 0.989862
vt 0.625000 0.371198
vt 0.625000 0.247465
vt 0.625000 0.123733
vt 0.640625 0.000000
vt 0.625000 0.989862
vt 0.625000 0.866129
vt 0.625000 0.742396
vt 0.625000 0.618664
vt 0.625000 0.494931
vt 0.593750 0.866129
vt 0.593750 0.742396
vt 0.593750 0.618664
vt 0.593750 0.494931
vt 0.593750 0.371198
vt 0.593750 0.247465
vt 0.593750 0.123733
vt 0.609375 0.000000
vt 0.593750 0.989862
vt 0.562500 0.371198
vt 0.562500 0.247465
vt 0.562500 0.123733
vt 0.578125 0.000000
vt 0.562500 0.989862
vt 0.562500 0.866129
vt 0.562500 0.742396
vt 0.562500 0.618664
vt 0.562500 0.494931
vt 0.531250 0.742396
vt 0.531250 0.618664
vt 0.531250 0.494931
vt 0.531250 0.371198
vt 0.531250 0.247465
vt 0.531250 0.123733
vt 0.546875 0.000000
vt 0.531250 0.989862
vt 0.531250 0.866129
vt 0.500000 0.247465
vt 0.500000 0.123733
vt 0.515625 0.000000
vt 0.500000 0.989862
vt 0.500000 0.866129
vt 0.500000 0.742396
vt 0.500000 0.618664
vt 0.500000 0.494931
vt 0.500000 0.371198
vt 0.468750 0.742396
vt 0.468750 0.618664
vt 0.468750 0.494931
vt 0.468750 0.371198
vt 0.468750 0.247465
vt 0.468750 0.123733
vt 0.484375 0.000000
vt 0.468750 0.989862
vt 0.468750 0.866129
vt 0.437500 0.247465
vt 0.437500 0.123733
vt 0.453125 0.000000
vt 0.437500 0.989862
vt 0.437500 0.866129
vt 0.437500 0.742396
vt 0.437500 0.618664
vt 0.437500 0.494931
vt 0.437500 0.371198
vt 0.406250 0.618664
vt 0.406250 0.494931
vt 0.406250 0.371198
vt 0.406250 0.247465
vt 0.406250 0.123733
vt 0.421875 0.000000
vt 0.406250 0.989862
vt 0.406250 0.866129
vt 0.406250 0.742396
vt 0.390625 0.000000
vt 0.375000 0.123733
vt 0.375000 0.989862
vt 0.375000 0.866129
vt 0.375000 0.742396
vt 0.375000 0.618664
vt 0.375000 0.494931
vt 0.375000 0.371198
vt 0.375000 0.247465
vt 0.343750 0.494931
vt 0.343750 0.371198
vt 0.343750 0.247465
vt 0.343750 0.123733
vt 0.359375 0.000000
vt 0.343750 0.989862
vt 0.343750 0.866129
vt 0.343750 0.742396
vt 0.343750 0.618664
vt 0.312500 0.989862
vt 0.312500 0.866129
vt 0.312500 0.742396
vt 0.312500 0.618664
vt 0.312500 0.494931
vt 0.312500 0.371198
vt 0.312500 0.247465
vt 0.312500 0.123733
vt 0.328125 0.000000
vt 0.281250 0.494931
vt 0.281250 0.371198
vt 0.281250 0.247465
vt 0.281250 0.123733
vt 0.296875 0.000000
vt 0.281250 0.989862
vt 0.281250 0.866129
vt 0.281250 0.742396
vt 0.281250 0.618664
vt 0.250000 0.866129
vt 0.250000 0.742396
vt 0.250000 0.618664
vt 0.250000 0.494931
vt 0.250000 0.371198
vt 0.250000 0.247465
vt 0.250000 0.123733
vt 0.265625 0.000000
vt 0.250000 0.989862
vt 0.218750 0.371198
vt 0.218750 0.247465
vt 0.218750 0.123733
vt 0.234375 0.000000
vt 0.218750 0.989862
vt 0.218750 0.866129
vt 0.218750 0.742396
vt 0.218750 0.618664
vt 0.218750 0.494931
vt 0.187500 0.866129
vt 0.187500 0.742396
vt 0.187500 0.618664
vt 0.187500 0.494931
vt 0.187500 0.371198
vt 0.187500 0.247465
vt 0.187500 0.123733
vt 0.203125 0.000000
vt 0.187500 0.989862
vt 0.156250 0.371198
vt 0.156250 0.247465
vt 0.156250 0.123733
vt 0.171875 0.000000
vt 0.156250 0.989862
vt 0.156250 0.866129
vt 0.156250 0.742396
vt 0.156250 0.618664
vt 0.156250 0.494931
vt 0.125000 0.742396
vt 0.125000 0.618664
vt 0.125000 0.494931
vt 0.125000 0.371198
vt 0.125000 0.247465
vt 0.125000 0.123733
vt 0.140625 0.000000
vt 0.125000 0.989862
vt 0.125000 0.866129
vt 0.093750 0.247465
vt 0.093750 0.123733
vt 0.109375 0.000000
vt 0.093750 0.989862
vt 0.093750 0.866129
vt 0.093750 0.742396
vt 0.093750 0.618664
vt 0.093750 0.494931
vt 0.093750 0.371198
vt 0.062500 0.618663
vt 0.062500 0.494931
vt 0.062500 0.371198
vt 0.062500 0.247465
vt 0.062500 0.123733
vt 0.078125 0.000000
vt 0.062500 0.989862
vt 0.062500 0.866129
vt 0.062500 0.742396
vt 0.046875 0.000000
vt 0.031250 0.123733
vt 0.031250 0.989862
vt 0.031250 0.866129
vt 0.031250 0.742396
vt 0.031250 0.618664
vt 0.031250 0.494931
vt 0.031250 0.371198
vt 0.031250 0.247465
vt 0.000000 0.618664
vt 0.000000 0.494931
vt 0.000000 0.371198
vt 0.000000 0.247465
vt 0.000000 0.123733
vt 0.015625 0.000000
vt 0.000000 0.989862
vt 0.000000 0.866129
vt 0.000000 0.742396
vt 0.984375 0.000000
vt 1.000000 0.123733
vt 0.968750 0.123733
vt 1.000000 0.866129
vt 1.000000 0.989862
vt 0.968750 0.989862
vt 0.968750 0.866129
vt 1.000000 0.742396
vt 0.968750 0.742396
vt 1.000000 0.618664
vt 0.968750 0.618663
vt 1.000000 0.494931
vt 0.968750 0.494931
vt 1.000000 0.371198
vt 0.968750 0.371198
vt 1.000000 0.247465
vt 0.968750 0.247465
vt 0.937500 0.494931
vt 0.937500 0.371198
vt 0.937500 0.247465
vt 0.937500 0.123733
vt 0.953125 0.000000
vt 0.937500 0.989862
vt 0.937500 0.866129
vt 0.937500 0.742396
vt 0.937500 0.618663
vt 0.906250 0.989862
vt 0.906250 0.866129
vt 0.906250 0.742396
vt 0.906250 0.618663
vt 0.906250 0.494931
vt 0.906250 0.371198
vt 0.906250 0.247465
vt 0.906250 0.123733
vt 0.921875 0.000000
vt 0.875000 0.494931
vt 0.875000 0.371198
vt 0.875000 0.247465
vt 0.875000 0.123733
vt 0.890625 0.000000
vt 0.875000 0.989862
vt 0.875000 0.866129
vt 0.875000 0.742396
vt 0.875000 0.618663
vt 0.843750 0.866129
vt 0.843750 0.742396
vt 0.843750 0.618663
vt 0.843750 0.494931
vt 0.843750 0.371198
vt 0.843750 0.247465
vt 0.843750 0.123733
vt 0.859375 0.000000
vt 0.843750 0.989862
vt 0.812500 0.371198
vt 0.812500 0.247465
vt 0.812500 0.123733
vt 0.828125 0.000000
vt 0.812500 0.989862
vt 0.812500 0.866129
vt 0.812500 0.742396
vt 0.812500 0.618663
vt 0.812500 0.494931
vt 0.781250 0.742396
vt 0.781250 0.618663
vt 0.781250 0.494931
vt 0.781250 0.371198
vt 0.781250 0.247465
vt 0.781250 0.123733
vt 0.796875 0.000000
vt 0.781250 0.989862
vt 0.781250 0.866129
vt 0.765625 0.000000
s 1
f 256/1/256 255/2/255 9/3/9 10/4/10
f 257/5/257 256/1/256 10/4/10 11/6/11
f 164/7/164 257/5/257 11/6/11
f 2/8/2 1/9/1 4/10/4 5/11/5
f 253/12/253 2/8/2 5/11/5 6/13/6
f 3/14/3 253/12/253 6/13/6 7/15/7
f 254/16/254 3/14/3 7/15/7 8/17/8
f 255/2/255 254/16/254 8/17/8 9/3/9
f 9/3/9 8/17/8 16/18/16 17/19/17
f 10/4/10 9/3/9 17/19/17 18/20/18
f 11/6/11 10/4/10 18/20/18 19/21/19
f 164/22/164 11/6/11 19/21/19
f 5/11/5 4/10/4 12/23/12 13/24/13
f 6/13/6 5/11/5 13/24/13 14/25/14
f 7/15/7 6/13/6 14/25/14 15/26/15
f 8/17/8 7/15/7 15/26/15 16/18/16
f 14/25/14 13/24/13 21/27/21 22/28/22
f 15/26/15 14/25/14 22/28/22 23/29/23
f 16/18/16 15/26/15 23/29/23 24/30/24
f 17/19/17 16/18/16 24/30/24 25/31/25
f 18/20/18 17/19/17 25/31/25 26/32/26
f 19/21/19 18/20/18 26/32/26 27/33/27
f 164/34/164 19/21/19 27/33/27
f 13/24/13 12/23/12 20/35/20 21/27/21
f 26/32/26 25/31/25 33/36/33 34/37/34
f 27/33/27 26/32/26 34/37/34 35/38/35
f 164/39/164 27/33/27 35/38/35
f 21/27/21 20/35/20 28/40/28 29/41/29
f 22/28/22 21/27/21 29/41/29 30/42/30
f 23/29/23 22/28/22 30/42/30 31/43/31
f 24/30/24 23/29/23 31/43/31 32/44/32
f 25/31/25 24/30/24 32/44/32 33/36/33
f 30/42/30 29/41/29 37/45/37 38/46/38
f 31/43/31 30/42/30 38/46/38 39/47/39
f 32/44/32 31/43/31 39/47/39 40/48/40
f 33/36/33 32/44/32 40/48/40 41/49/41
f 34/37/34 33/36/33 41/49/41 42/50/42
f 35/38/35 34/37/34 42/50/42 43/51/43
f 164/52/164 35/38/35 43/51/43
f 29/41/29 28/40/28 36/53/36 37/45/37
f 42/50/42 41/49/41 49/54/49 50/55/50
f 43/51/43 42/50/42 50/55/50 51/56/51
f 164/57/164 43/51/43 51/56/51
f 37/45/37 36/53/36 44/58/44 45/59/45
f 38/46/38 37/45/37 45/59/45 46/60/46
f 39/47/39 38/46/38 46/60/46 47/61/47
f 40/48/40 39/47/39 47/61/47 48/62/48
f 41/49/41 40/48/40 48/62/48 49/54/49
f 47/61/47 46/60/46 54/63/54 55/64/55
f 48/62/48 47/61/47 55/64/55 56/65/56
f 49/54/49 48/62/48 56/65/56 57/66/57
f 50/55/50 49/54/49 57/66/57 58/67/58
f 51/56/51 50/55/50 58/67/58 59/68/59
f 164/69/164 51/56/51 59/68/59
f 45/59/45 44/58/44 52/70/52 53/71/53
f 46/60/46 45/59/45 53/71/53 54/63/54
f 59/68/59 58/67/58 66/72/66 67/73/67
f 164/74/164 59/68/59 67/73/67
f 53/71/53 52/70/52 60/75/60 61/76/61
f 54/63/54 53/71/53 61/76/61 62/77/62
f 55/64/55 54/63/54 62/77/62 63/78/63
f 56/65/56 55/64/55 63/78/63 64/79/64
f 57/66/57 56/65/56 64/79/64 65/80/65
f 58/67/58 57/66/57 65/80/65 66/72/66
f 63/78/63 62/77/62 70/81/70 71/82/71
f 64/79/64 63/78/63 71/82/71 72/83/72
f 65/80/65 64/79/64 72/83/72 73/84/73
f 66/72/66 65/80/65 73/84/73 74/85/74
f 67/73/67 66/72/66 74/85/74 75/86/75
f 164/87/164 67/73/67 75/86/75
f 61/76/61 60/75/60 68/88/68 69/89/69
f 62/77/62 61/76/61 69/89/69 70/81/70
f 75/86/75 74/85/74 82/90/82 83/91/83
f 164/92/164 75/86/75 83/91/83
f 69/89/69 68/88/68 76/93/76 77/94/77
f 70/81/70 69/89/69 77/94/77 78/95/78
f 71/82/71 70/81/70 78/95/78 79/96/79
f 72/83/72 71/82/71 79/96/79 80/97/80
f 73/84/73 72/83/72 80/97/80 81/98/81
f 74/85/74 73/84/73 81/98/81 82/90/82
f 80/97/80 79/96/79 87/99/87 88/100/88
f 81/98/81 80/97/80 88/100/88 89/101/89
f 82/90/82 81/98/81 89/101/89 90/102/90
f 83/91/83 82/90/82 90/102/90 91/103/91
f 164/104/164 83/91/83 91/103/91
f 77/94/77 76/93/76 84/105/84 85/106/85
f 78/95/78 77/94/77 85/106/85 86/107/86
f 79/96/79 78/95/78 86/107/86 87/99/87
f 164/108/164 91/103/91 99/109/99
f 85/106/85 84/105/84 92/110/92 93/111/93
f 86/107/86 85/106/85 93/111/93 94/112/94
f 87/99/87 86/107/86 94/112/94 95/113/95
f 88/100/88 87/99/87 95/113/95 96/114/96
f 89/101/89 88/100/88 96/114/96 97/115/97
f 90/102/90 89/101/89 97/115/97 98/116/98
f 91/103/91 90/102/90 98/116/98 99/109/99
f 97/115/97 96/114/96 104/117/104 105/118/105
f 98/116/98 97/115/97 105/118/105 106/119/106
f 99/109/99 98/116/98 106/119/106 107/120/107
f 164/121/164 99/109/99 107/120/107
f 93/111/93 92/110/92 100/122/100 101/123/101
f 94/112/94 93/111/93 101/123/101 102/124/102
f 95/113/95 94/112/94 102/124/102 103/125/103
f 96/114/96 95/113/95 103/125/103 104/117/104
f 101/123/101 100/122/100 108/126/108 109/127/109
f 102/124/102 101/123/101 109/127/109 110/128/110
f 103/125/103 102/124/102 110/128/110 111/129/111
f 104/117/104 103/125/103 111/129/111 112/130/112
f 105/118/105 104/117/104 112/130/112 113/131/113
f 106/119/106 105/118/105 113/131/113 114/132/114
f 107/120/107 106/119/106 114/132/114 115/133/115
f 164/134/164 107/120/107 115/133/115
f 113/131/113 112/130/112 120/135/120 121/136/121
f 114/132/114 113/131/113 121/136/121 122/137/122
f 115/133/115 114/132/114 122/137/122 123/138/123
f 164/139/164 115/133/115 123/138/123
f 109/127/109 108/126/108 116/140/116 117/141/117
f 110/128/110 109/127/109 117/141/117 118/142/118
f 111/129/111 110/128/110 118/142/118 119/143/119
f 112/130/112 111/129/111 119/143/119 120/135/120
f 118/142/118 117/141/117 125/144/125 126/145/126
f 119/143/119 118/142/118 126/145/126 127/146/127
f 120/135/120 119/143/119 127/146/127 128/147/128
f 121/136/121 120/135/120 128/147/128 129/148/129
f 122/137/122 121/136/121 129/148/129 130/149/130
f 123/138/123 122/137/122 130/149/130 131/150/131
f 164/151/164 123/138/123 131/150/131
f 117/141/117 116/140/116 124/152/124 125/144/125
f 130/149/130 129/148/129 137/153/137 138/154/138
f 131/150/131 130/149/130 138/154/138 139/155/139
f 164/156/164 131/150/131 139/155/139
f 125/144/125 124/152/124 132/157/132 133/158/133
f 126/145/126 125/144/125 133/158/133 134/159/134
f 127/146/127 126/145/126 134/159/134 135/160/135
f 128/147/128 127/146/127 135/160/135 136/161/136
f 129/148/129 128/147/128 136/161/136 137/153/137
f 134/159/134 133/158/133 141/162/141 142/163/142
f 135/160/135 134/159/134 142/163/142 143/164/143
f 136/161/136 135/160/135 143/164/143 144/165/144
f 137/153/137 136/161/136 144/165/144 145/166/145
f 138/154/138 137/153/137 145/166/145 146/167/146
f 139/155/139 138/154/138 146/167/146 147/168/147
f 164/169/164 139/155/139 147/168/147
f 133/158/133 132/157/132 140/170/140 141/162/141
f 146/167/146 145/166/145 153/171/153 154/172/154
f 147/168/147 146/167/146 154/172/154 155/173/155
f 164/174/164 147/168/147 155/173/155
f 141/162/141 140/170/140 148/175/148 149/176/149
f 142/163/142 141/162/141 149/176/149 150/177/150
f 143/164/143 142/163/142 150/177/150 151/178/151
f 144/165/144 143/164/143 151/178/151 152/179/152
f 145/166/145 144/165/144 152/179/152 153/171/153
f 151/178/151 150/177/150 158/180/158 159/181/159
f 152/179/152 151/178/151 159/181/159 160/182/160
f 153/171/153 152/179/152 160/182/160 161/183/161
f 154/172/154 153/171/153 161/183/161 162/184/162
f 155/173/155 154/172/154 162/184/162 163/185/163
f 164/186/164 155/173/155 163/185/163
f 149/176/149 148/175/148 156/187/156 157/188/157
f 150/177/150 149/176/149 157/188/157 158/180/158
f 163/185/163 162/184/162 171/189/171 172/190/172
f 164/191/164 163/185/163 172/190/172
f 157/188/157 156/187/156 165/192/165 166/193/166
f 158/180/158 157/188/157 166/193/166 167/194/167
f 159/181/159 158/180/158 167/194/167 168/195/168
f 160/182/160 159/181/159 168/195/168 169/196/169
f 161/183/161 160/182/160 169/196/169 170/197/170
f 162/184/162 161/183/161 170/197/170 171/189/171
f 169/196/169 168/195/168 176/198/176 177/199/177
f 170/197/170 169/196/169 177/199/177 178/200/178
f 171/189/171 170/197/170 178/200/178 179/201/179
f 172/190/172 171/189/171 179/201/179 180/202/180
f 164/203/164 172/190/172 180/202/180
f 166/193/166 165/192/165 173/204/173 174/205/174
f 167/194/167 166/193/166 174/205/174 175/206/175
f 168/195/168 167/194/167 175/206/175 176/198/176
f 164/207/164 180/202/180 188/208/188
f 174/205/174 173/204/173 181/209/181 182/210/182
f 175/206/175 174/205/174 182/210/182 183/211/183
f 176/198/176 175/206/175 183/211/183 184/212/184
f 177/199/177 176/198/176 184/212/184 185/213/185
f 178/200/178 177/199/177 185/213/185 186/214/186
f 179/201/179 178/200/178 186/214/186 187/215/187
f 180/202/180 179/201/179 187/215/187 188/208/188
f 185/213/185 184/212/184 192/216/192 193/217/193
f 186/214/186 185/213/185 193/217/193 194/218/194
f 187/215/187 186/214/186 194/218/194 195/219/195
f 188/208/188 187/215/187 195/219/195 196/220/196
f 164/221/164 188/208/188 196/220/196
f 182/210/182 181/209/181 189/222/189 190/223/190
f 183/211/183 182/210/182 190/223/190 191/224/191
f 184/212/184 183/211/183 191/224/191 192/216/192
f 164/225/164 196/226/196 204/227/204
f 190/228/190 189/229/189 197/230/197 198/231/198
f 191/232/191 190/228/190 198/231/198 199/233/199
f 192/234/192 191/232/191 199/233/199 200/235/200
f 193/236/193 192/234/192 200/235/200 201/237/201
f 194/238/194 193/236/193 201/237/201 202/239/202
f 195/240/195 194/238/194 202/239/202 203/241/203
f 196/226/196 195/240/195 203/241/203 204/227/204
f 202/239/202 201/237/201 209/242/209 210/243/210
f 203/241/203 202/239/202 210/243/210 211/244/211
f 204/227/204 203/241/203 211/244/211 212/245/212
f 164/246/164 204/227/204 212/245/212
f 198/231/198 197/230/197 205/247/205 206/248/206
f 199/233/199 198/231/198 206/248/206 207/249/207
f 200/235/200 199/233/199 207/249/207 208/250/208
f 201/237/201 200/235/200 208/250/208 209/242/209
f 206/248/206 205/247/205 213/251/213 214/252/214
f 207/249/207 206/248/206 214/252/214 215/253/215
f 208/250/208 207/249/207 215/253/215 216/254/216
f 209/242/209 208/250/208 216/254/216 217/255/217
f 210/243/210 209/242/209 217/255/217 218/256/218
f 211/244/211 210/243/210 218/256/218 219/257/219
f 212/245/212 211/244/211 219/257/219 220/258/220
f 164/259/164 212/245/212 220/258/220
f 218/256/218 217/255/217 225/260/225 226/261/226
f 219/257/219 218/256/218 226/261/226 227/262/227
f 220/258/220 219/257/219 227/262/227 228/263/228
f 164/264/164 220/258/220 228/263/228
f 214/252/214 213/251/213 221/265/221 222/266/222
f 215/253/215 214/252/214 222/266/222 223/267/223
f 216/254/216 215/253/215 223/267/223 224/268/224
f 217/255/217 216/254/216 224/268/224 225/260/225
f 223/267/223 222/266/222 230/269/230 231/270/231
f 224/268/224 223/267/223 231/270/231 232/271/232
f 225/260/225 224/268/224 232/271/232 233/272/233
f 226/261/226 225/260/225 233/272/233 234/273/234
f 227/262/227 226/261/226 234/273/234 235/274/235
f 228/263/228 227/262/227 235/274/235 236/275/236
f 164/276/164 228/263/228 236/275/236
f 222/266/222 221/265/221 229/277/229 230/269/230
f 235/274/235 234/273/234 242/278/242 243/279/243
f 236/275/236 235/274/235 243/279/243 244/280/244
f 164/281/164 236/275/236 244/280/244
f 230/269/230 229/277/229 237/282/237 238/283/238
f 231/270/231 230/269/230 238/283/238 239/284/239
f 232/271/232 231/270/231 239/284/239 240/285/240
f 233/272/233 232/271/232 240/285/240 241/286/241
f 234/273/234 233/272/233 241/286/241 242/278/242
f 240/285/240 239/284/239 247/287/247 248/288/248
f 241/286/241 240/285/240 248/288/248 249/289/249
f 242/278/242 241/286/241 249/289/249 250/290/250
f 243/279/243 242/278/242 250/290/250 251/291/251
f 244/280/244 243/279/243 251/291/251 252/292/252
f 164/293/164 244/280/244 252/292/252
f 238/283/238 237/282/237 245/294/245 246/295/246
f 239/284/239 238/283/238 246/295/246 247/287/247
f 252/292/252 251/291/251 256/1/256 257/5/257
f 164/296/164 252/292/252 257/5/257
f 246/295/246 245/294/245 1/9/1 2/8/2
f 247/287/247 246/295/246 2/8/2 253/12/253
f 248/288/248 247/287/247 253/12/253 3/14/3
f 249/289/249 248/288/248 3/14/3 254/16/254
f 250/290/250 249/289/249 254/16/254 255/2/255
f 251/291/251 250/290/250 255/2/255 256/1/256
